<?xml version="1.0" standalone="no"?>
<!DOCTYPE svg PUBLIC "-//W3C//DTD SVG 1.1//EN" "http://www.w3.org/Graphics/SVG/1.1/DTD/svg11.dtd" >
<!--
2013-9-30: Created.
-->
<svg>
<metadata>
Created by iconfont
</metadata>
<defs>

<font id="iconfont" horiz-adv-x="1024" >
  <font-face
    font-family="iconfont"
    font-weight="500"
    font-stretch="normal"
    units-per-em="1024"
    ascent="896"
    descent="-128"
  />
    <missing-glyph />
    
    <glyph glyph-name="eye" unicode="&#58958;" d="M512 675.27111111c-186.368 0-331.54844445-111.04711111-509.72444445-291.27111111 153.37244445-154.05511111 282.16888889-291.27111111 509.72444445-291.27111111 227.328 0 394.58133333 173.85244445 509.72444445 288.08533333C903.85066667 514.6168888899999 736.82488889 675.27111111 512 675.27111111zM512 176.24177778c-112.41244445 0-203.88977778 93.29777778-203.88977778 207.75822222 0 114.688 91.47733333 207.75822222 203.88977778 207.75822222s203.88977778-93.29777778 203.88977778-207.75822222C715.88977778 269.312 624.41244445 176.24177778 512 176.24177778zM512 456.81777778c0 17.97688889 6.59911111 34.36088889 17.29422222 47.104-5.68888889 0.91022222-11.37777778 1.36533333-17.29422222 1.36533333-65.536 0-119.01155555-54.38577778-119.01155555-121.28711111 0-66.90133333 53.47555555-121.28711111 119.01155555-121.28711111s119.01155555 54.38577778 119.01155555 121.28711111c0 5.23377778-0.45511111 10.46755555-0.91022222 15.70133333-12.51555555-9.78488889-27.98933333-15.70133333-45.056-15.70133333C544.54044445 384 512 416.54044445 512 456.81777778z"  horiz-adv-x="1024" />

    
    <glyph glyph-name="fanhui-copy" unicode="&#58880;" d="M532.207 177.866v0c3.079 1.777 6.39 3.079 9.112 5.802 0.477 0.594 0.827 1.064 1.303 1.539 0.594 0.709 1.539 0.946 2.128 1.54l319.434 331.383c8.519 8.757 12.781 20.121 12.781 31.483 0 11.836-4.733 23.79-13.964 32.666-18.107 17.398-46.871 16.924-64.265-1.183l-288.071-298.956-283.922 300.139c-17.28 18.225-46.040 19.057-64.265 1.777-18.226-17.281-19.057-46.040-1.777-64.265l316.355-334.462c13.844-14.676 35.149-17.399 52.429-9.113 0.945 0.35 1.777 1.182 2.722 1.653v0zM532.207 177.866z"  horiz-adv-x="1024" />

    
    <glyph glyph-name="zhanghu2" unicode="&#58923;" d="M508.028519 400.637147l-0.253963-0.977251c0.158473 0 0.316946 0.004063 0.47542 0.004063l0 0.969125C508.175818 400.633083 508.102677 400.637147 508.028519 400.637147zM1014.421514-62.802499c-10.955984 220.238134-123.422182 405.60099-321.286134 478.03645 51.744548 49.010886 84.024321 118.362213 84.024321 195.256256 0 148.514788-120.394937 268.909725-268.908709 268.909725-148.514788 0-268.909725-120.394937-268.909725-268.909725 0-76.895059 32.281804-146.24537 84.024321-195.256256C125.503666 342.798491 13.033405 157.43462 2.077421-62.802499c-0.098538-0.937633-0.153394-1.884409-0.153394-2.84947 0-14.849752 12.0399-26.890668 26.890668-26.890668 0.134093 0 0.264122 0.018285 0.397199 0.021333 0.133077-0.003048 0.263106-0.021333 0.397199-0.021333l957.28075 0c0.134093 0 0.26209 0.018285 0.396183 0.021333 0.134093-0.003048 0.263106-0.021333 0.397199-0.021333 14.852799 0 26.891684 12.040916 26.891684 26.890668C1014.574908-64.687924 1014.519036-63.740132 1014.421514-62.802499zM376.653218 375.947834c3.904942 1.101186 7.836297 2.137357 11.780857 3.143052l-0.003048 0.01219c11.112425 3.302541 19.223003 13.58095 19.223003 25.766118 0 9.005545-4.442329 16.956633-11.238391 21.837811-1.004679 0.721256-2.052025 1.382577-3.15321 1.96263-2.612776 1.655842-5.191013 3.359429-7.725569 5.122951-55.848598 38.858442-92.412226 103.504335-92.412226 176.698638 0 118.812237 96.316153 215.128389 215.128389 215.128389 118.811221 0 215.127374-96.315137 215.127374-215.128389 0-73.194303-36.562612-137.83918-92.412226-176.698638-2.534555-1.763522-5.112793-3.467109-7.725569-5.122951-1.10017-0.580053-2.148531-1.241373-3.15321-1.96263-6.796062-4.881178-11.238391-12.832266-11.238391-21.837811 0-12.186183 8.110577-22.463577 19.223003-25.766118l-0.004063-0.01219c3.944561-1.004679 7.875915-2.041866 11.780857-3.143052 187.504275-52.856908 300.1452-215.83644 318.944591-414.70812L57.707611-38.760285C76.507002 160.111395 189.148943 323.090926 376.653218 375.947834z"  horiz-adv-x="1030" />

    
    <glyph glyph-name="youshuangjiantou" unicode="&#59081;" d="M838.4 422.4 505.6 761.6C499.2 768 480 761.6 480 748.8l0-256L217.6 761.6C211.2 768 192 761.6 192 748.8l0-729.6c0-12.8 12.8-19.2 25.6-12.8l262.4 262.4 0-256c0-12.8 12.8-19.2 25.6-12.8l339.2 339.2C864 364.8 864 403.2 838.4 422.4z"  horiz-adv-x="1024" />

    
    <glyph glyph-name="zuoshuangjiantou" unicode="&#59088;" d="M198.4 422.4l332.8 332.8c6.4 6.4 25.6 0 25.6-12.8l0-256 262.4 262.4c6.4 6.4 25.6 0 25.6-12.8l0-729.6c0-12.8-12.8-19.2-25.6-12.8L556.8 268.8l0-256c0-12.8-12.8-19.2-25.6-12.8L198.4 345.6C172.8 364.8 172.8 403.2 198.4 422.4z"  horiz-adv-x="1024" />

    
    <glyph glyph-name="shijian-copy" unicode="&#58888;" d="M512 832c-256 0-460.8-208-460.8-460.8s208-460.8 460.8-460.8 460.8 208 460.8 460.8-204.8 460.8-460.8 460.8zM512-44.8c-227.2 0-412.8 185.6-412.8 412.8s185.6 412.8 412.8 412.8 412.8-185.6 412.8-412.8-182.4-412.8-412.8-412.8zM809.6 352h-278.4v281.6c0 12.8-9.6 22.4-22.4 22.4-12.8 0-22.4-9.6-22.4-22.4v-307.2c0-12.8 9.6-22.4 22.4-22.4 0 0 3.2 0 3.2 0h297.6c12.8 0 22.4 9.6 22.4 22.4-0 16-9.6 25.6-22.4 25.6z"  horiz-adv-x="1024" />

    
    <glyph glyph-name="zuojiantou" unicode="&#58917;" d="M862.485 414.846H234.126l203.3 203.3c12.497 12.497 12.497 32.758 0 45.255s-32.758 12.497-45.255 0L135.397 406.627c-12.497-12.497-12.497-32.758 0-45.254l256.774-256.775c6.249-6.248 14.438-9.372 22.627-9.372s16.379 3.124 22.627 9.372c12.497 12.497 12.497 32.759 0 45.255l-203.3 203.301h628.36c17.036 0 30.846 13.81 30.846 30.846s-13.81 30.846-30.846 30.846z"  horiz-adv-x="1024" />

    
    <glyph glyph-name="duihao" unicode="&#58902;" d="M512 896a512 512 0 1 1 0-1024A512 512 0 0 1 512 896z m321.097143-343.04l-411.648-411.574857a20.626286 20.626286 0 0 0-11.995429-5.924572 22.454857 22.454857 0 0 0-22.162285 5.558858L174.811429 353.572571a22.235429 22.235429 0 0 0 0 31.451429l26.404571 26.404571a22.454857 22.454857 0 0 0 31.524571 0L404.260571 239.908571l370.980572 370.980572a22.089143 22.089143 0 0 0 31.158857-0.804572l25.892571-25.892571a22.089143 22.089143 0 0 0 0.804572-31.232z"  horiz-adv-x="1024" />

    
    <glyph glyph-name="transfer" unicode="&#59422;" d="M656 668.8l-9.6 9.6-9.6-9.6-35.2-35.2 22.4-22.4 147.2-147.2h-284.8C288 451.2 131.2 288 131.2 89.60000000000002v-3.2h64v3.2c0 163.2 128 297.6 291.2 310.4H771.2l-147.2-147.2-16-16-6.4-6.4 44.8-44.8 51.2 51.2 195.2 195.2-236.8 236.8z"  horiz-adv-x="1024" />

    
    <glyph glyph-name="shuaxin" unicode="&#59111;" d="M972.42903 486.716237l-241.55648 72.248011 53.881934 48.16534c-64.706972 79.1809-162.862098 130.022093-273.180188 130.022093-195.093954 0-353.334125-158.118541-353.334125-353.334125 0-195.093954 158.118541-353.334125 353.334125-353.334126s353.334125 158.118541 353.334125 353.334126c0 3.284-0.364889 6.446371-0.486518 9.608742l106.304312-37.461932c-14.473928-241.069961-214.433068-432.150137-459.151919-432.150136C257.489963-76.18577 51.57097 129.733222 51.57097 383.817556 51.57097 637.901889 257.489963 843.820881 511.574296 843.820881c141.820169 0 268.679891-64.342083 352.969236-165.29469l67.017936 59.963416 40.867562-251.77337z"  horiz-adv-x="1024" />

    
    <glyph glyph-name="weibiaoti-" unicode="&#58881;" d="M1024 384A512 512 0 1 0 0 384a512 512 0 0 0 1024 0z m-128 0a64 64 0 0 1-64 64H192a64 64 0 0 1 0-128h640a64 64 0 0 1 64 64z"  horiz-adv-x="1024" />

    
    <glyph glyph-name="sangedian" unicode="&#58971;" d="M931.2870400000002 382.65343999999993z m92.71296-1.4210854715202004e-14a92.70784 92.70784 0 1 1-185.42592 2.842170943040401e-14 92.71296 92.71296 0 0 1 185.42592-2.842170943040401e-14M512 384z m92.71296-1.4210854715202004e-14a92.71808 92.71808 0 1 1-185.43104 1.4210854715202004e-14 92.71808 92.71808 0 0 1 185.43104-1.4210854715202004e-14M92.71296000000001 385.34656z m92.71296-1.4210854715202004e-14c1.0658141036401503e-14 51.20512-41.50783999999999 92.71296-92.71295999999998 92.71296000000002C41.50783999999999 478.05952000000013 0 436.55168000000015 0 385.34655999999995S41.50783999999999 292.6284800000001 92.71296000000001 292.6284800000001c51.20512-1.0658141036401503e-14 92.71296000000001 41.51295999999998 92.71296000000001 92.71807999999997"  horiz-adv-x="1024" />

    
    <glyph glyph-name="wenhao" unicode="&#58992;" d="M511.829 895.065c66.37 0 131.336-12.633 192.494-37.497 63.362-25.665 120.308-63.563 169.233-112.287 48.926-48.925 86.624-105.871 112.288-169.234 24.864-61.357 37.497-126.123 37.497-192.494 0-66.37-12.633-131.337-37.497-192.493-25.666-63.364-63.562-120.308-112.288-169.234-48.925-48.926-105.87-86.623-169.233-112.288-61.358-24.864-126.123-37.496-192.494-37.496-66.37 0-131.337 12.632-192.493 37.496-63.364 25.665-120.309 63.563-169.234 112.288C101.176 70.752 63.48 127.698 37.814 191.06 12.95 252.419 0.318 317.184 0.318 383.554c0 66.371 12.633 131.337 37.496 192.494 25.666 63.363 63.563 120.309 112.288 169.234 48.925 48.925 105.871 86.623 169.234 112.287C380.492 882.432 445.259 895.066 511.829 895.066z m0.803-217.959c-53.538 0-96.649-14.437-129.332-43.111-32.484-28.874-52.134-70.179-58.75-124.319l73.187-8.62c6.416 40.503 19.65 69.978 40.102 89.027 20.253 19.05 45.718 28.473 75.994 28.473 31.482 0 57.95-10.627 79.606-31.48 21.655-20.854 32.483-45.317 32.483-72.988 0-15.239-3.81-29.475-11.03-42.309-7.418-12.832-23.46-30.277-48.122-51.933-24.664-21.856-41.707-38.298-51.131-49.727-12.833-15.64-22.257-31.08-28.072-46.32-7.82-20.25-11.83-44.513-11.83-72.384 0-4.812 0.2-11.83 0.4-21.455h68.376c0.6 28.473 2.406 49.125 6.015 61.758 3.41 12.632 8.823 23.86 15.84 33.686s22.259 24.864 45.518 45.517c34.488 30.678 57.748 56.545 69.579 78 11.83 21.254 17.845 44.715 17.845 69.979 0 43.713-16.843 81.208-50.73 112.087-34.088 30.68-79.204 46.12-135.948 46.12z m-0.602-499.68c-24.062 0-43.713-19.45-43.713-43.713 0-24.062 19.45-43.712 43.713-43.712 24.061 0 43.712 19.45 43.712 43.712-0.2 24.062-19.65 43.711-43.712 43.711z"  horiz-adv-x="1024" />

    
    <glyph glyph-name="daoru" unicode="&#58885;" d="M907.236767 876.939188H586.214526c-13.957489 0-23.262481-9.304992-23.262481-23.262481s9.304992-23.262481 23.262481-23.262481H907.236767c39.546218 0 69.787444-32.567474 69.787444-69.787444V-11.687594c0-39.546218-30.241226-69.787444-69.787444-69.787444H116.312406c-39.546218 0-69.787444 32.567474-69.787444 69.787444V523.349474c0 13.957489-9.304992 23.262481-23.262481 23.262481s-23.262481-9.304992-23.262481-23.262481v-535.037068c0-65.134947 51.177459-116.312406 116.312406-116.312406h790.924361c65.134947 0 116.312406 53.503707 116.312406 116.312406V760.626782c0 62.808699-53.503707 116.312406-116.312406 116.312406zM120.964902 851.350459L174.468609 825.761729c116.312406-60.482451 190.752346-146.553632 197.73109-230.298563 2.326248-30.241226 2.326248-79.092436 0-109.333662l-2.326248-23.262481c0-6.978744-4.652496-11.631241-11.63124-11.631241l-107.007414-6.978744c-13.957489 0-25.588729-9.304992-30.241226-23.262482-4.652496-13.957489 0-27.914977 6.978745-34.893721l248.908549-265.192286c6.978744-6.978744 16.283737-9.304992 25.588729-9.304993 9.304992 0 16.283737 4.652496 25.588729 13.957489l214.014828 290.781015c9.304992 9.304992 11.631241 25.588729 4.652496 37.21997s-18.609985 20.936233-32.567474 18.609985l-141.901135-9.304992-2.326248 25.588729c-4.652496 74.43994-11.631241 139.574887-48.851211 200.057338C467.575872 779.236767 355.915962 849.024211 218.667323 876.939188L137.248639 895.549173c-11.631241 2.326248-23.262481-4.652496-27.914977-13.957489-4.652496-11.631241 2.326248-25.588729 11.63124-30.241225z m360.568459-183.773602c32.567474-53.503707 37.21997-111.65991 41.872466-179.121105l2.326248-39.546218c0-18.609985 16.283737-32.567474 34.893722-32.567474l127.943647 6.978745-190.752346-258.213542-218.667324 232.624812 102.354918 6.978745c16.283737 0 30.241226 13.957489 32.567473 32.567473l2.326249 41.872467c4.652496 34.893722 4.652496 86.07118 0 118.638654-6.978744 74.43994-55.829955 148.87988-132.596143 209.362331 88.397429-27.914977 162.837368-79.092436 197.73109-139.574888z"  horiz-adv-x="1024" />

    
    <glyph glyph-name="jiahao1" unicode="&#58883;" d="M902.947 324.97299999999996h-332.293v-332.346c0-32.387-26.267-58.628-58.655-58.628-32.387 0-58.654 26.241-58.654 58.628v332.346h-332.295c-32.414 0-58.654 26.241-58.654 58.628 0 32.375 26.243 58.628 58.654 58.628h332.293v332.346c0 32.375 26.267 58.628 58.654 58.628 32.388 0 58.655-26.254 58.655-58.628v-332.347h332.293c32.414 0 58.655-26.252 58.655-58.626-0.001-32.387-26.241-58.626-58.655-58.626z"  horiz-adv-x="1024" />

    
    <glyph glyph-name="xiazai" unicode="&#58998;" d="M947.2 268.8c-15.36 0-25.6-10.24-25.6-25.6v-281.6H104.96v281.6c0 15.36-12.8 25.6-25.6 25.6s-25.6-10.24-25.6-25.6v-307.2c0-7.68 2.56-12.8 7.68-17.92 5.12-5.12 12.8-7.68 17.92-7.68H947.2c7.68 0 12.8 2.56 17.92 7.68 5.12 5.12 7.68 12.8 7.68 17.92v307.2c0 15.36-12.8 25.6-25.6 25.6zM512 857.6c-15.36 0-28.16-12.8-28.16-25.6v-614.4l-181.76 179.2c-10.24 10.24-28.16 10.24-38.4 0-10.24-10.24-10.24-28.16 0-38.4l209.92-204.8 38.4-38.4 38.4 38.4 209.92 204.8c10.24 10.24 10.24 28.16 0 38.4-10.24 10.24-28.16 10.24-38.4 0l-181.76-179.2v614.4c0 12.8-12.8 25.6-28.16 25.6z"  horiz-adv-x="1024" />

    
    <glyph glyph-name="baozhang" unicode="&#58892;" d="M725.8 742.6c-16.8 0-30.4 13.7-30.4 30.4 0 16.8 13.7 30.4 30.4 30.4 16.8 0 30.4-13.7 30.4-30.4 0.1-16.7-13.6-30.4-30.4-30.4z m0 45.9c-8.5 0-15.5-6.9-15.5-15.5 0-8.5 6.9-15.5 15.5-15.5 8.5 0 15.5 6.9 15.5 15.5s-7 15.5-15.5 15.5zM232.5 694.1h-13.3v13.3c0 3.6-2.9 6.4-6.4 6.4-3.6 0-6.4-2.9-6.4-6.4v-13.3H193c-3.6 0-6.4-2.9-6.4-6.4s2.9-6.4 6.4-6.4h13.3V668c0-3.6 2.9-6.4 6.4-6.4 3.6 0 6.4 2.9 6.4 6.4v13.3h13.3c3.6 0 6.4 2.9 6.4 6.4s-2.7 6.4-6.3 6.4zM905.2 564.7h-13.3V578c0 3.6-2.9 6.4-6.4 6.4-3.6 0-6.4-2.9-6.4-6.4v-13.3h-13.3c-3.6 0-6.4-2.9-6.4-6.4s2.9-6.4 6.4-6.4H879v-13.3c0-3.6 2.9-6.4 6.4-6.4 3.6 0 6.4 2.9 6.4 6.4v13.3h13.3c3.6 0 6.4 2.9 6.4 6.4s-2.8 6.4-6.3 6.4zM117.9 374.3h-15.5v15.5c0 4.1-3.4 7.5-7.5 7.5s-7.5-3.3-7.5-7.5v-15.5H72c-4.1 0-7.5-3.3-7.5-7.5s3.4-7.5 7.5-7.5h15.5v-15.5c0-4.1 3.4-7.5 7.5-7.5s7.5 3.3 7.5 7.5v15.5H118c4.1 0 7.5 3.3 7.5 7.5s-3.5 7.5-7.6 7.5zM333.9 761.8m-11.2 0a11.2 11.2 0 1 1 22.4 0 11.2 11.2 0 1 1-22.4 0ZM835.7 702.6m-15 0a15 15 0 1 1 30 0 15 15 0 1 1-30 0ZM80.5 761.8m-15 0a15 15 0 1 1 30 0 15 15 0 1 1-30 0ZM117.4 528.3c-16.8 0-30.4 13.7-30.4 30.4 0 16.8 13.7 30.4 30.4 30.4s30.4-13.7 30.4-30.4-13.6-30.4-30.4-30.4z m0 45.9c-8.5 0-15.5-6.9-15.5-15.5 0-8.5 6.9-15.5 15.5-15.5s15.5 6.9 15.5 15.5-7 15.5-15.5 15.5zM476.3 817.7c-1.6 1.6-4.2 1.6-5.9 0-0.8-0.8-1.2-1.8-1.2-2.9s0.4-2.1 1.2-2.9l13.3-13.3c0.8-0.8 1.8-1.2 2.9-1.2 1.1 0 2.1 0.4 2.9 1.2 1.6 1.6 1.6 4.2 0 5.9l-13.2 13.2zM511.4 782.6c-0.8 0.8-1.8 1.2-2.9 1.2-1.1 0-2.1-0.4-2.9-1.2-1.6-1.6-1.6-4.2 0-5.9l13.3-13.3c0.8-0.8 1.8-1.2 2.9-1.2 1.1 0 2.1 0.4 2.9 1.2 0.8 0.8 1.2 1.8 1.2 2.9 0 1.1-0.4 2.2-1.2 2.9l-13.3 13.4zM508.4 797.4c1.1 0 2.1 0.4 2.9 1.2l13.3 13.3c0.8 0.8 1.2 1.8 1.2 2.9 0 1.1-0.4 2.2-1.2 2.9-1.6 1.6-4.2 1.6-5.9 0l-13.3-13.3c-1.6-1.6-1.6-4.2 0-5.9 0.9-0.7 1.9-1.1 3-1.1zM483.7 782.6l-13.3-13.3c-0.8-0.8-1.2-1.8-1.2-2.9s0.4-2.1 1.2-2.9c0.8-0.8 1.8-1.2 2.9-1.2 1.1 0 2.1 0.4 2.9 1.2l13.3 13.3c1.6 1.6 1.6 4.2 0 5.9-1.5 1.5-4.2 1.5-5.8-0.1zM486.3 790.6c0 2.3-1.9 4.1-4.1 4.1h-18.8c-2.3 0-4.1-1.9-4.1-4.1 0-2.3 1.9-4.1 4.1-4.1h18.8c2.2 0 4.1 1.8 4.1 4.1zM531.8 794.8H513c-2.3 0-4.1-1.9-4.1-4.1 0-2.3 1.9-4.1 4.1-4.1h18.8c2.3 0 4.1 1.9 4.1 4.1 0 2.2-1.8 4.1-4.1 4.1zM497.5 829c-2.3 0-4.1-1.9-4.1-4.1V806c0-2.3 1.9-4.1 4.1-4.1 2.3 0 4.1 1.9 4.1 4.1V824.8c0.1 2.3-1.8 4.2-4.1 4.2zM497.5 779.3c-2.3 0-4.1-1.9-4.1-4.1v-18.8c0-2.3 1.9-4.1 4.1-4.1 2.3 0 4.1 1.9 4.1 4.1v18.8c0.1 2.3-1.8 4.1-4.1 4.1zM899.9 419.1c-1.6 1.6-4.2 1.6-5.9 0-0.8-0.8-1.2-1.8-1.2-2.9 0-1.1 0.4-2.1 1.2-2.9l13.3-13.3c0.8-0.8 1.8-1.2 2.9-1.2 1.1 0 2.1 0.4 2.9 1.2 1.6 1.6 1.6 4.2 0 5.9l-13.2 13.2zM935 383.9c-0.8 0.8-1.8 1.2-2.9 1.2-1.1 0-2.1-0.4-2.9-1.2-1.6-1.6-1.6-4.2 0-5.9l13.3-13.3c0.8-0.8 1.8-1.2 2.9-1.2 1.1 0 2.1 0.4 2.9 1.2 0.8 0.8 1.2 1.8 1.2 2.9 0 1.1-0.4 2.2-1.2 2.9L935 383.9zM932 398.7c1.1 0 2.1 0.4 2.9 1.2l13.3 13.3c0.8 0.8 1.2 1.8 1.2 2.9 0 1.1-0.4 2.2-1.2 2.9-1.6 1.6-4.2 1.6-5.9 0L929 405.7c-1.6-1.6-1.6-4.2 0-5.9 0.9-0.7 1.9-1.1 3-1.1zM907.3 383.9L894 370.6c-0.8-0.8-1.2-1.8-1.2-2.9 0-1.1 0.4-2.1 1.2-2.9 0.8-0.8 1.8-1.2 2.9-1.2 1.1 0 2.1 0.4 2.9 1.2l13.3 13.3c1.6 1.6 1.6 4.2 0 5.9-1.5 1.5-4.2 1.5-5.8-0.1zM909.9 391.9c0 2.3-1.9 4.1-4.1 4.1H887c-2.3 0-4.1-1.9-4.1-4.1s1.9-4.1 4.1-4.1h18.8c2.2 0 4.1 1.8 4.1 4.1zM955.4 396.1h-18.8c-2.3 0-4.1-1.9-4.1-4.1s1.9-4.1 4.1-4.1h18.8c2.3 0 4.1 1.9 4.1 4.1s-1.9 4.1-4.1 4.1zM921.1 430.3c-2.3 0-4.1-1.9-4.1-4.1v-18.8c0-2.3 1.9-4.1 4.1-4.1s4.1 1.9 4.1 4.1v18.8c0.1 2.2-1.8 4.1-4.1 4.1zM921.1 380.6c-2.3 0-4.1-1.9-4.1-4.1v-18.8c0-2.3 1.9-4.1 4.1-4.1s4.1 1.9 4.1 4.1v18.8c0.1 2.3-1.8 4.1-4.1 4.1zM883.6-61h-26.7c-6.2 0-11.2 5-11.2 11.2 0 6.2 5 11.2 11.2 11.2h26.7c6.2 0 11.2-5 11.2-11.2 0-6.1-5-11.2-11.2-11.2zM169-61h-34.2c-6.2 0-11.2 5-11.2 11.2 0 6.2 5 11.2 11.2 11.2H169c6.2 0 11.2-5 11.2-11.2 0.1-6.1-5-11.2-11.2-11.2zM823.7-61h-617c-6.2 0-11.2 5-11.2 11.2 0 6.2 5 11.2 11.2 11.2h617c6.2 0 11.2-5 11.2-11.2 0.1-6.1-4.9-11.2-11.2-11.2zM786.7 565.3l-22.7 9.4v-269.8c0-80.6-42.7-155.1-112.2-195.8l-157.7-92.5c-9.5-5.5-21.2-5.5-30.6 0L305.8 109c-15.9 9.3-30.3 20.5-43.2 33 19.4-35.8 48.3-66.4 84.6-87.7l157.7-92.5c9.5-5.5 21.2-5.5 30.6 0l157.7 92.5c69.5 40.8 112.2 115.3 112.2 195.8V537.3c0 12.2-7.4 23.3-18.7 28zM463.5 16.6c9.5-5.5 21.2-5.5 30.6 0L651.8 109C721.3 149.8 764 224.3 764 304.9V574.6l-232.2 96c-7.4 3.1-15.7 3.1-23.1 0l-255-105.3c-11.3-4.7-18.7-15.7-18.7-28v-287.1c0-38.5 9.8-75.5 27.5-108.2 12.9-12.5 27.3-23.7 43.2-33l157.8-92.4zM507-53.5c-7.5 0-15 2-21.7 5.9l-165 96.8c-75.8 44.5-122.9 126.7-122.9 214.6V564.1c0 17.4 10.4 33 26.5 39.6l31.2 12.1c5.8 2.2 12.3-0.6 14.5-6.4 2.2-5.8-0.6-12.3-6.4-14.5l-31-12c-7.4-3.1-12.4-10.5-12.4-18.8v-300.4c0-80 42.9-154.8 111.8-195.2l165-96.8c6.4-3.7 14.3-3.7 20.7 0l165 96.8c69 40.5 111.8 115.3 111.8 195.2V564.1c0 8.3-5 15.7-12.6 18.9L514.8 693.3c-5 2.1-10.6 2.1-15.6 0L381 643.6c-5.7-2.4-12.3 0.3-14.7 6-2.4 5.7 0.3 12.3 6 14.7l118.3 49.8c10.6 4.4 22.3 4.4 32.8 0l266.8-110.3c16.1-6.7 26.5-22.2 26.5-39.6v-300.4c0-87.9-47.1-170.1-122.9-214.6l-165-96.8c-6.8-3.9-14.3-5.9-21.8-5.9zM295.5 609.2c-4.4 0-8.6 2.6-10.4 6.9-2.4 5.7 0.4 12.3 6.1 14.7l44.7 18.5c5.7 2.4 12.3-0.4 14.7-6.1 2.4-5.7-0.4-12.3-6.1-14.7L299.8 610c-1.4-0.6-2.9-0.8-4.3-0.8zM517.8 145.7c-10.3 0-18.7 8.4-18.7 18.7V297.7c0 10.3 8.4 18.7 18.7 18.7 10.3 0 18.7-8.4 18.7-18.7v-133.3c0-10.3-8.4-18.7-18.7-18.7zM512.7 134.5h-11.5c-18.6 0-33.7 15.1-33.7 33.7V317.3c0 18.6 15.1 33.7 33.7 33.7h11.5c18.6 0 33.7-15.1 33.7-33.7v-149.2c0-18.5-15.1-33.6-33.7-33.6z m-11.4 194c-6.2 0-11.2-5-11.2-11.2v-149.2c0-6.2 5-11.2 11.2-11.2h11.5c6.2 0 11.2 5 11.2 11.2V317.3c0 6.2-5 11.2-11.2 11.2h-11.5zM514.2 392.9m-86.7 0a86.7 86.7 0 1 1 173.4 0 86.7 86.7 0 1 1-173.4 0ZM507 300.2c-58 0-105.2 47.2-105.2 105.2S449 510.6 507 510.6s105.2-47.2 105.2-105.2S565 300.2 507 300.2z m0 187.9c-45.6 0-82.7-37.1-82.7-82.7s37.1-82.7 82.7-82.7 82.7 37.1 82.7 82.7-37.1 82.7-82.7 82.7zM280.4 408.4c-6.2 0-11.2 5-11.2 11.2v73.7c0 21.5 11.9 40.8 31.1 50.5 0.4 0.2 0.9 0.4 1.3 0.6l49.9 17.5c5.9 2 12.3-1 14.3-6.9 2.1-5.8-1-12.3-6.9-14.3l-49.2-17.3c-11.2-5.9-18.2-17.4-18.2-30.1v-73.7c0.2-6.2-4.9-11.2-11.1-11.2zM280.4 315.2c-6.2 0-11.2 5-11.2 11.2v40.5c0 6.2 5 11.2 11.2 11.2s11.2-5 11.2-11.2v-40.5c0.1-6.2-5-11.2-11.2-11.2z"  horiz-adv-x="1024" />

    
    <glyph glyph-name="shouyi" unicode="&#58894;" d="M139.2 371.9c-16.8 0-30.5 13.7-30.5 30.5s13.7 30.5 30.5 30.5 30.5-13.7 30.5-30.5-13.7-30.5-30.5-30.5z m0 46c-8.5 0-15.5-6.9-15.5-15.5 0-8.5 6.9-15.5 15.5-15.5s15.5 6.9 15.5 15.5c0 8.5-6.9 15.5-15.5 15.5zM176.1 590.9h-13.3v13.3c0 3.6-2.9 6.5-6.5 6.5s-6.5-2.9-6.5-6.5v-13.3h-13.3c-3.6 0-6.5-2.9-6.5-6.5s2.9-6.5 6.5-6.5h13.3v-13.3c0-3.6 2.9-6.5 6.5-6.5s6.5 2.9 6.5 6.5v13.3h13.3c3.6 0 6.5 2.9 6.5 6.5s-2.9 6.5-6.5 6.5zM908.8 589.8h-13.3v13.3c0 3.6-2.9 6.5-6.5 6.5s-6.5-2.9-6.5-6.5v-13.3h-13.3c-3.6 0-6.5-2.9-6.5-6.5s2.9-6.5 6.5-6.5h13.3v-13.3c0-3.6 2.9-6.5 6.5-6.5s6.5 2.9 6.5 6.5v13.3h13.3c3.6 0 6.5 2.9 6.5 6.5s-2.9 6.5-6.5 6.5zM868.5 455.8H853v15.5c0 4.1-3.4 7.5-7.5 7.5s-7.5-3.4-7.5-7.5v-15.5h-15.5c-4.1 0-7.5-3.4-7.5-7.5s3.4-7.5 7.5-7.5H838v-15.5c0-4.1 3.4-7.5 7.5-7.5s7.5 3.4 7.5 7.5v15.5h15.5c4.1 0 7.5 3.4 7.5 7.5s-3.4 7.5-7.5 7.5zM277.7 658.7m-11.2 0a11.2 11.2 0 1 1 22.4 0 11.2 11.2 0 1 1-22.4 0ZM780.2 599.4m-15 0a15 15 0 1 1 30 0 15 15 0 1 1-30 0ZM685.1 747.5m-15 0a15 15 0 1 1 30 0 15 15 0 1 1-30 0ZM502 740.6c-16.8 0-30.5 13.7-30.5 30.5s13.7 30.5 30.5 30.5 30.5-13.7 30.5-30.5-13.7-30.5-30.5-30.5z m0 46c-8.5 0-15.5-6.9-15.5-15.5 0-8.5 6.9-15.5 15.5-15.5s15.5 6.9 15.5 15.5c0 8.5-7 15.5-15.5 15.5zM322.4 820.3c-1.6 1.6-4.2 1.6-5.9 0-0.8-0.8-1.2-1.8-1.2-2.9s0.4-2.1 1.2-2.9l13.3-13.3c0.8-0.8 1.8-1.2 2.9-1.2s2.2 0.4 2.9 1.2c1.6 1.6 1.6 4.3 0 5.9l-13.2 13.2zM357.6 785.1c-0.8 0.8-1.8 1.2-2.9 1.2-1.1 0-2.2-0.4-2.9-1.2-1.6-1.6-1.6-4.3 0-5.9l13.3-13.3c0.8-0.8 1.8-1.2 2.9-1.2 1.1 0 2.2 0.4 2.9 1.2 0.8 0.8 1.2 1.8 1.2 2.9 0 1.1-0.4 2.2-1.2 2.9l-13.3 13.4zM354.7 799.8c1.1 0 2.2 0.4 2.9 1.2l13.3 13.3c0.8 0.8 1.2 1.8 1.2 2.9 0 1.1-0.4 2.2-1.2 2.9-1.6 1.6-4.3 1.6-5.9 0l-13.3-13.3c-1.6-1.6-1.6-4.3 0-5.9 0.8-0.6 1.9-1.1 3-1.1zM329.9 785.1l-13.3-13.3c-0.8-0.8-1.2-1.8-1.2-2.9 0-1.1 0.4-2.1 1.2-2.9 0.8-0.8 1.8-1.2 2.9-1.2 1.1 0 2.2 0.4 2.9 1.2l13.3 13.3c1.6 1.6 1.6 4.3 0 5.9-1.5 1.5-4.2 1.5-5.8-0.1zM332.5 793.1c0 2.3-1.9 4.2-4.1 4.2h-18.8c-2.3 0-4.1-1.9-4.1-4.2 0-2.3 1.9-4.1 4.1-4.1h18.8c2.2-0.1 4.1 1.8 4.1 4.1zM378 797.2h-18.8c-2.3 0-4.2-1.9-4.2-4.2 0-2.3 1.9-4.1 4.2-4.1H378c2.3 0 4.2 1.9 4.2 4.1 0 2.4-1.9 4.2-4.2 4.2zM343.7 831.5c-2.3 0-4.2-1.9-4.2-4.1v-18.8c0-2.3 1.9-4.1 4.2-4.1 2.3 0 4.1 1.9 4.1 4.1V827.4c0.1 2.2-1.8 4.1-4.1 4.1zM343.7 781.8c-2.3 0-4.2-1.9-4.2-4.2v-18.8c0-2.3 1.9-4.2 4.2-4.2 2.3 0 4.1 1.9 4.1 4.2v18.8c0.1 2.3-1.8 4.2-4.1 4.2zM889-63.5h-26.8c-6.2 0-11.2 5-11.2 11.2 0 6.2 5 11.2 11.2 11.2H889c6.2 0 11.2-5 11.2-11.2 0.1-6.2-5-11.2-11.2-11.2zM173.5-63.5h-34.3c-6.2 0-11.2 5-11.2 11.2 0 6.2 5 11.2 11.2 11.2h34.3c6.2 0 11.2-5 11.2-11.2 0-6.2-5-11.2-11.2-11.2zM829.1-63.5H211.3c-6.2 0-11.2 5-11.2 11.2 0 6.2 5 11.2 11.2 11.2h617.8c6.2 0 11.2-5 11.2-11.2 0.1-6.2-5-11.2-11.2-11.2zM768.8 152.9c11.6 103.6-90.1 253.8-136 315.7-20.1 10-41.2 17.2-63.2 21.1a252.414 252.414 0 0 0-75 0c-140-25-248.1-185.3-248.1-323.8 0-150.6 127.9-218.2 285.6-218.2 78.2 33 221.8 71.9 236.7 205.2zM569.6 489.7c18.9 2.8 36.4 7.5 51.9 13.9 19.2 21.5 19.5 88 15.5 146-27.8 14.9-64.5 24.1-104.8 24.1-86.6 0-156.7-41.8-156.7-93.4 0-43.9 50.8-80.6 119.3-90.6 12.3 2.2 24.8 3.5 37.5 3.5 12.5-0.1 25-1.3 37.3-3.5zM817.7 165.9c0 116.8-101.2 272.6-223.3 312.9 44.6-61 168.4-174.3 159-301.4-9.9-133.8-154.6-189.5-232.7-222.4 157.7 0 297 60.3 297 210.9zM565.8 534.6c61.5-16 123 13.9 123 45.7 0 27.5-35.6 63.1-67.4 80.2 23.6-45.2 25.6-107.4-55.6-125.9zM601.9 212.5H447.6c-6.2 0-11.2 5-11.2 11.2s5 11.2 11.2 11.2h154.3c6.2 0 11.2-5 11.2-11.2s-5-11.2-11.2-11.2zM601.9 157.1H447.6c-6.2 0-11.2 5-11.2 11.2 0 6.2 5 11.2 11.2 11.2h154.3c6.2 0 11.2-5 11.2-11.2 0.1-6.1-5-11.2-11.2-11.2zM532.2 92.8c-6.2 0-11.2 5-11.2 11.2V231.2c0 6.2 5 11.2 11.2 11.2s11.2-5 11.2-11.2V104c0.1-6.2-4.9-11.2-11.2-11.2zM534.6 230.7c-2.7 0-5.4 1-7.5 2.9-4.6 4.2-5 11.3-0.8 15.9l63.8 71c4.2 4.6 11.3 5 15.9 0.8s5-11.3 0.8-15.9l-63.8-71c-2.2-2.5-5.3-3.7-8.4-3.7zM594.4 227.5H440.1c-6.2 0-11.2 5-11.2 11.2 0 6.2 5 11.2 11.2 11.2h154.3c6.2 0 11.2-5 11.2-11.2 0.1-6.2-5-11.2-11.2-11.2zM594.4 172.1H440.1c-6.2 0-11.2 5-11.2 11.2 0 6.2 5 11.2 11.2 11.2h154.3c6.2 0 11.2-5 11.2-11.2 0.1-6.1-5-11.2-11.2-11.2zM517.2 100.3c-6.2 0-11.2 5-11.2 11.2V238.7c0 6.2 5 11.2 11.2 11.2 6.2 0 11.2-5 11.2-11.2v-127.2c0.1-6.2-4.9-11.2-11.2-11.2zM519.7 238.2c-2.7 0-5.4 1-7.5 2.9-4.6 4.2-5 11.3-0.8 15.9l63.8 71c4.2 4.6 11.3 5 15.9 0.8s5-11.3 0.8-15.9l-63.8-71a11.4 11.4 0 0 0-8.4-3.7zM514.8 238.2c-3.1 0-6.1 1.3-8.4 3.7l-63.8 71c-4.2 4.6-3.8 11.7 0.8 15.9 4.6 4.2 11.7 3.8 15.9-0.8l63.8-71c4.2-4.6 3.8-11.7-0.8-15.9-2.1-2-4.8-2.9-7.5-2.9zM707.7 498.1v-9.9c0-11.3-9.2-20.5-20.5-20.5H377.1c-11.3 0-20.5 9.2-20.5 20.5v9.9c0 11.3 9.2 20.5 20.5 20.5h310.1c11.2 0 20.5-9.2 20.5-20.5zM517.2-63.5c-192.3 0-311.7 88.8-311.7 231.8 0 61.3 13.1 109.5 43.7 161.3 3.2 5.3 10.1 7.1 15.4 3.9 5.3-3.2 7.1-10.1 3.9-15.4-28.8-48.7-40.6-92.1-40.6-149.8C228 37.2 336.1-41 517.2-41c181.1 0 289.2 78.3 289.2 209.3 0 144.8-129 319.6-289.2 319.6-75 0-131.8-25.7-184.3-83.2-4.2-4.6-11.3-4.9-15.9-0.7s-4.9 11.3-0.7 15.9c56.3 61.8 120.2 90.6 200.9 90.6 172.7 0 311.7-187.2 311.7-342.1 0.1-143.1-119.4-231.9-311.7-231.9zM517.2 481.6C418.4 481.6 341 528 341 587.3S418.5 693 517.2 693s176.2-46.4 176.2-105.7S616 481.6 517.2 481.6z m0 188.9c-83.3 0-153.7-38.1-153.7-83.2s70.4-83.2 153.7-83.2 153.7 38.1 153.7 83.2-70.4 83.2-153.7 83.2zM701.9 522.2v-46c0-1.5-1.2-2.7-2.7-2.7H335.3c-1.5 0-2.7 1.2-2.7 2.7v46c0 1.5 1.2 2.7 2.7 2.7h363.9c1.5 0 2.7-1.2 2.7-2.7zM708.9 462.2H325.6c-2.3 0-4.2 1.9-4.2 4.2V532c0 2.3 1.9 4.2 4.2 4.2H709c2.3 0 4.2-1.9 4.2-4.2v-65.5c0-2.4-1.9-4.3-4.3-4.3z m-365.1 50.3V486c0-0.7 0.6-1.2 1.2-1.2h344.4c0.7 0 1.2 0.6 1.2 1.2v26.5c0 0.7-0.6 1.2-1.2 1.2H345c-0.6 0-1.2-0.6-1.2-1.2zM408 588.1c-0.8 0-1.7 0.1-2.5 0.3-6.1 1.4-9.8 7.4-8.4 13.5 4.8 20.8 19.8 29.7 27.8 31.6 6 1.5 12.1-2.3 13.6-8.3 1.4-6-2.2-11.9-8.1-13.5-1-0.3-8.7-3-11.4-14.8-1.3-5.2-5.9-8.8-11-8.8zM300.9 67.7c-3.1 0-6.3 1.3-8.5 3.9-24.2 27.8-22.8 84.5-22.8 86.9 0.2 6.2 5.3 11.1 11.6 10.9 6.2-0.2 11.1-5.3 10.9-11.5-0.4-13.9 2-54 17.3-71.5 4.1-4.7 3.6-11.8-1.1-15.9-2.1-1.9-4.8-2.8-7.4-2.8zM277.7 188.8h-1c-6.2 0.5-10.8 6-10.3 12.2l1.7 20.4c0.5 6.2 6 10.8 12.2 10.3 6.2-0.5 10.8-6 10.3-12.2l-1.7-20.4c-0.5-5.9-5.5-10.3-11.2-10.3zM280.9 348.5c-2 0-4.1 0.6-6 1.7-5.3 3.3-6.8 10.3-3.5 15.5l12.2 19.4c3.3 5.3 10.3 6.8 15.5 3.5 5.3-3.3 6.8-10.3 3.5-15.5l-12.2-19.4c-2.2-3.3-5.8-5.2-9.5-5.2z"  horiz-adv-x="1024" />

    
    <glyph glyph-name="yonghu" unicode="&#58895;" d="M525.5 299.8c-156.1 0-282.6-127.7-282.6-285.2h565.2c0 157.5-126.5 285.2-282.6 285.2zM491.2 3.2H187.3c-6.3 0-11.4 5.1-11.4 11.4 0 142.9 91.5 267.7 227.8 310.5 6 1.9 12.4-1.4 14.3-7.4 1.9-6-1.5-12.4-7.4-14.3C287.4 264.8 203.5 154.1 198.8 26h292.3c6.3 0 11.4-5.1 11.4-11.4s-5.1-11.4-11.3-11.4zM561.7 623.2c36.5-30.5 59.7-76.4 59.7-127.7 0-92-74.5-166.5-166.5-166.5-19.6 0-38.5 3.4-55.9 9.7 28.9-24.2 66.1-38.8 106.8-38.8 92 0 166.5 74.5 166.5 166.5-0.1 72.3-46.2 133.8-110.6 156.8zM621.4 495.4c0 51.3-23.2 97.2-59.7 127.7-17.5 6.2-36.3 9.7-55.9 9.7-92 0-166.5-74.5-166.5-166.5 0-51.3 23.2-97.2 59.7-127.7 17.5-6.2 36.3-9.7 55.9-9.7 91.9 0 166.5 74.6 166.5 166.5zM491.2 288.5c-106.1 0-192.4 86.3-192.4 192.4 0 25.4 4.9 50.1 14.5 73.4 2.4 5.8 9.1 8.6 14.9 6.2 5.8-2.4 8.6-9.1 6.2-14.9-8.5-20.5-12.8-42.3-12.8-64.7 0-93.6 76.1-169.7 169.7-169.7S661 387.3 661 480.9s-76.1 169.7-169.7 169.7c-37 0-72.1-11.7-101.6-33.8-5-3.8-12.2-2.7-15.9 2.3-3.8 5-2.7 12.2 2.3 15.9 33.5 25.1 73.3 38.3 115.2 38.3 106.1 0 192.4-86.3 192.4-192.4-0.1-106.1-86.4-192.4-192.5-192.4zM340.1 576c-1.9 0-3.7 0.5-5.5 1.4-5.5 3-7.5 9.9-4.5 15.4 3.2 5.8 7.7 11 13 15 5 3.8 12.2 2.7 15.9-2.3 3.8-5 2.7-12.2-2.3-15.9-2.8-2.1-5.1-4.8-6.7-7.8-2-3.7-5.9-5.8-9.9-5.8zM198.5 386.9c-17 0-30.8 13.8-30.8 30.8s13.8 30.8 30.8 30.8 30.8-13.8 30.8-30.8c0-16.9-13.8-30.8-30.8-30.8z m0 46.5c-8.6 0-15.7-7-15.7-15.7 0-8.6 7-15.7 15.7-15.7 8.6 0 15.7 7 15.7 15.7-0.1 8.7-7.1 15.7-15.7 15.7zM174.3 569.2h-13.5v13.5c0 3.6-2.9 6.5-6.5 6.5s-6.5-2.9-6.5-6.5v-13.5h-13.5c-3.6 0-6.5-2.9-6.5-6.5s2.9-6.5 6.5-6.5h13.5v-13.5c0-3.6 2.9-6.5 6.5-6.5s6.5 2.9 6.5 6.5v13.5h13.5c3.6 0 6.5 2.9 6.5 6.5s-2.9 6.5-6.5 6.5zM915.5 568.1H902v13.5c0 3.6-2.9 6.5-6.5 6.5s-6.5-2.9-6.5-6.5v-13.5h-13.5c-3.6 0-6.5-2.9-6.5-6.5s2.9-6.5 6.5-6.5H889v-13.5c0-3.6 2.9-6.5 6.5-6.5s6.5 2.9 6.5 6.5v13.5h13.5c3.6 0 6.5 2.9 6.5 6.5s-2.9 6.5-6.5 6.5zM874.7 432.6H859v15.7c0 4.2-3.4 7.6-7.6 7.6s-7.6-3.4-7.6-7.6v-15.7h-15.7c-4.2 0-7.6-3.4-7.6-7.6s3.4-7.6 7.6-7.6h15.7v-15.7c0-4.2 3.4-7.6 7.6-7.6s7.6 3.4 7.6 7.6v15.7h15.7c4.2 0 7.6 3.4 7.6 7.6s-3.4 7.6-7.6 7.6zM277 637.8m-11.4 0a11.4 11.4 0 1 1 22.8 0 11.4 11.4 0 1 1-22.8 0ZM785.3 577.8m-15.2 0a15.2 15.2 0 1 1 30.4 0 15.2 15.2 0 1 1-30.4 0ZM689.2 727.6m-15.2 0a15.2 15.2 0 1 1 30.4 0 15.2 15.2 0 1 1-30.4 0ZM503.9 720.7c-17 0-30.8 13.8-30.8 30.8s13.8 30.8 30.8 30.8 30.8-13.8 30.8-30.8c0.1-17-13.8-30.8-30.8-30.8z m0 46.5c-8.6 0-15.7-7-15.7-15.7 0-8.6 7-15.7 15.7-15.7s15.7 7 15.7 15.7-7 15.7-15.7 15.7zM322.3 793.7c-1.6 1.6-4.3 1.6-5.9 0-0.8-0.8-1.2-1.9-1.2-3s0.4-2.2 1.2-3l13.5-13.5c0.8-0.8 1.8-1.2 3-1.2 1.1 0 2.2 0.4 3 1.2 1.6 1.6 1.6 4.3 0 5.9l-13.6 13.6zM357.9 758.1c-0.8 0.8-1.8 1.2-3 1.2-1.1 0-2.2-0.4-3-1.2-1.6-1.6-1.6-4.3 0-5.9l13.5-13.5c0.8-0.8 1.8-1.2 3-1.2 1.1 0 2.2 0.4 3 1.2 0.8 0.8 1.2 1.8 1.2 3 0 1.1-0.4 2.2-1.2 3l-13.5 13.4zM354.9 773c1.1 0 2.2 0.4 3 1.2l13.5 13.5c0.8 0.8 1.2 1.8 1.2 3 0 1.1-0.4 2.2-1.2 3-1.6 1.6-4.3 1.6-5.9 0L352 780.2c-1.6-1.6-1.6-4.3 0-5.9 0.7-0.8 1.8-1.3 2.9-1.3zM329.8 758.1l-13.5-13.5c-0.8-0.8-1.2-1.9-1.2-3s0.4-2.2 1.2-3c0.8-0.8 1.8-1.2 3-1.2 1.1 0 2.2 0.4 3 1.2l13.5 13.5c1.6 1.6 1.6 4.3 0 5.9-1.6 1.7-4.4 1.7-6 0.1zM332.4 766.2c0 2.3-1.9 4.2-4.2 4.2h-19.1c-2.3 0-4.2-1.9-4.2-4.2 0-2.3 1.9-4.2 4.2-4.2h19.1c2.4 0 4.2 1.9 4.2 4.2zM378.5 770.4h-19.1c-2.3 0-4.2-1.9-4.2-4.2 0-2.3 1.9-4.2 4.2-4.2h19.1c2.3 0 4.2 1.9 4.2 4.2 0 2.3-1.9 4.2-4.2 4.2zM343.9 805.1c-2.3 0-4.2-1.9-4.2-4.2v-19.1c0-2.3 1.9-4.2 4.2-4.2s4.2 1.9 4.2 4.2V800.9c0 2.3-1.9 4.2-4.2 4.2zM343.9 754.8c-2.3 0-4.2-1.9-4.2-4.2v-19c0-2.3 1.9-4.2 4.2-4.2s4.2 1.9 4.2 4.2v19c0 2.3-1.9 4.2-4.2 4.2zM948.1 3.2H921c-6.3 0-11.4 5.1-11.4 11.4S914.8 26 921 26h27.1c6.3 0 11.4-5.1 11.4-11.4s-5.1-11.4-11.4-11.4zM110.5 3.2H75.9c-6.3 0-11.4 5.1-11.4 11.4S69.6 26 75.9 26h34.7c6.3 0 11.4-5.1 11.4-11.4s-5.2-11.4-11.5-11.4zM877.6 3.2H146.4c-6.3 0-11.4 5.1-11.4 11.4s5.1 11.4 11.4 11.4h731.2c6.3 0 11.4-5.1 11.4-11.4s-5.1-11.4-11.4-11.4zM716.3 117.6m-143.3 0a143.3 143.3 0 1 1 286.6 0 143.3 143.3 0 1 1-286.6 0ZM709.6-37.1c-93.1 0-168.9 75.8-168.9 168.9 0 93.1 75.8 168.9 168.9 168.9S878.5 225 878.5 131.9c0-93.2-75.7-169-168.9-169z m0 315.1c-80.6 0-146.2-65.6-146.2-146.2S629-14.4 709.6-14.4s146.2 65.6 146.2 146.2c0 80.7-65.6 146.2-146.2 146.2zM697.8 50.1c-2.8 0-5.5 1-7.6 2.9l-73.1 65.6c-4.7 4.2-5.1 11.4-0.9 16.1 4.2 4.7 11.4 5.1 16.1 0.9l63.9-57.4 87.3 114.2c3.8 5 11 5.9 15.9 2.1 5-3.8 5.9-11 2.1-15.9l-94.8-123.9c-1.9-2.5-4.8-4.1-8-4.4-0.2-0.2-0.5-0.2-0.9-0.2z"  horiz-adv-x="1024" />

    
    <glyph glyph-name="touzi" unicode="&#58896;" d="M785.9 9.5H241.5c-3.3 0-6.1 2.7-6.1 6.1V571.2c0 3.3 2.7 6.1 6.1 6.1h544.3c3.3 0 6.1-2.7 6.1-6.1v-555.7c0-3.3-2.7-6-6-6zM791.9 495.2c-125-330.1-351.5-445.7-482.2-485.7h454.6c15.2 0 27.6 12.4 27.6 27.6V495.2zM271.2 244.5l129.4 150.6 112.9-116.6 147.4 156.6M271.2 234c-2.4 0-4.9 0.8-6.8 2.5-4.4 3.8-4.9 10.4-1.1 14.8l129.4 150.6c1.9 2.2 4.7 3.6 7.6 3.6 3 0.1 5.8-1.1 7.9-3.2l105.3-108.7 139.8 148.6c4 4.2 10.6 4.4 14.8 0.5 4.2-4 4.4-10.6 0.5-14.8L521.2 271.3c-2-2.1-4.7-3.3-7.6-3.3-3-0.2-5.6 1.1-7.6 3.2L401 379.5 279.2 237.6c-2.1-2.4-5-3.6-8-3.6zM684.7 460.4m-35.1 0a35.1 35.1 0 1 1 70.2 0 35.1 35.1 0 1 1-70.2 0ZM684.7 414.8c-25.1 0-45.6 20.5-45.6 45.6s20.5 45.6 45.6 45.6 45.6-20.5 45.6-45.6-20.5-45.6-45.6-45.6z m0 70.3c-13.6 0-24.6-11.1-24.6-24.6s11-24.6 24.6-24.6c13.6 0 24.6 11 24.6 24.6s-11 24.6-24.6 24.6zM717.2 712.2c-15.7 0-28.4 12.8-28.4 28.4 0 15.7 12.8 28.4 28.4 28.4 15.7 0 28.4-12.8 28.4-28.4 0.1-15.7-12.7-28.4-28.4-28.4z m0 42.8c-8 0-14.4-6.5-14.4-14.4 0-8 6.5-14.5 14.4-14.5s14.5 6.5 14.5 14.5-6.5 14.4-14.5 14.4zM256.4 666.8H244v12.4c0 3.3-2.7 6-6 6s-6-2.7-6-6v-12.4h-12.4c-3.3 0-6-2.7-6-6s2.7-6 6-6H232v-12.4c0-3.3 2.7-6 6-6s6 2.7 6 6v12.4h12.4c3.3 0 6 2.7 6 6 0 3.4-2.7 6-6 6zM884.8 546h-12.4v12.4c0 3.3-2.7 6-6 6s-6-2.7-6-6V546H848c-3.3 0-6-2.7-6-6s2.7-6 6-6h12.4v-12.4c0-3.3 2.7-6 6-6s6 2.7 6 6V534h12.4c3.3 0 6 2.7 6 6s-2.7 6-6 6zM114.4 382.1H99.9v14.5c0 3.9-3.1 7-7 7s-7-3.1-7-7v-14.5H71.5c-3.9 0-7-3.1-7-7s3.1-7 7-7H86v-14.5c0-3.9 3.1-7 7-7s7 3.1 7 7v14.5h14.4c3.9 0 7 3.1 7 7s-3.2 7-7 7zM351.1 730.1m-10.5 0a10.5 10.5 0 1 1 21 0 10.5 10.5 0 1 1-21 0ZM819.9 674.8m-14 0a14 14 0 1 1 28 0 14 14 0 1 1-28 0ZM114.4 730.1m-14 0a14 14 0 1 1 28 0 14 14 0 1 1-28 0ZM127.9 539.9c-15.7 0-28.4 12.8-28.4 28.4 0 15.7 12.8 28.4 28.4 28.4s28.4-12.8 28.4-28.4c0-15.6-12.7-28.4-28.4-28.4z m0 42.9c-8 0-14.4-6.5-14.4-14.4 0-8 6.5-14.5 14.4-14.5s14.5 6.5 14.5 14.5c0 7.9-6.5 14.4-14.5 14.4zM510 734.4c-1.5 1.5-4 1.5-5.5 0-0.7-0.7-1.1-1.7-1.1-2.7 0-1 0.4-2 1.1-2.7l12.4-12.4c0.7-0.7 1.7-1.1 2.7-1.1 1 0 2 0.4 2.7 1.1 1.5 1.5 1.5 4 0 5.5L510 734.4zM542.8 701.6c-0.7 0.7-1.7 1.1-2.7 1.1-1 0-2-0.4-2.7-1.1-1.5-1.5-1.5-4 0-5.5l12.4-12.4c0.7-0.7 1.7-1.1 2.7-1.1 1 0 2 0.4 2.7 1.1 0.7 0.7 1.1 1.7 1.1 2.7 0 1-0.4 2-1.1 2.7l-12.4 12.5zM540.1 715.4c1 0 2 0.4 2.7 1.1l12.4 12.4c0.7 0.7 1.1 1.7 1.1 2.7 0 1-0.4 2-1.1 2.7-1.5 1.5-4 1.5-5.5 0L537.4 722c-1.5-1.5-1.5-4 0-5.5 0.7-0.7 1.7-1.1 2.7-1.1zM517 701.6l-12.4-12.4c-0.7-0.7-1.1-1.7-1.1-2.7 0-1 0.4-2 1.1-2.7 0.7-0.7 1.7-1.1 2.7-1.1 1 0 2 0.4 2.7 1.1l12.4 12.4c1.5 1.5 1.5 4 0 5.5-1.4 1.4-3.9 1.4-5.4-0.1zM519.4 709c0 2.1-1.7 3.9-3.9 3.9h-17.6c-2.1 0-3.9-1.7-3.9-3.9s1.7-3.9 3.9-3.9h17.6c2.2 0.1 3.9 1.8 3.9 3.9zM561.9 712.9h-17.6c-2.1 0-3.9-1.7-3.9-3.9s1.7-3.9 3.9-3.9h17.6c2.1 0 3.9 1.7 3.9 3.9s-1.8 3.9-3.9 3.9zM529.9 744.9c-2.1 0-3.9-1.7-3.9-3.9v-17.6c0-2.1 1.7-3.9 3.9-3.9 2.1 0 3.9 1.7 3.9 3.9V741c0 2.2-1.7 3.9-3.9 3.9zM529.9 698.5c-2.1 0-3.9-1.7-3.9-3.9V677c0-2.1 1.7-3.9 3.9-3.9 2.1 0 3.9 1.7 3.9 3.9v17.6c0 2.2-1.7 3.9-3.9 3.9zM903.8 372c-1.5 1.5-4 1.5-5.5 0-0.7-0.7-1.1-1.7-1.1-2.7s0.4-2 1.1-2.7l12.4-12.4c0.7-0.7 1.7-1.1 2.7-1.1s2 0.4 2.7 1.1c1.5 1.5 1.5 4 0 5.5L903.8 372zM936.6 339.2c-0.7 0.7-1.7 1.1-2.7 1.1-1 0-2-0.4-2.7-1.1-1.5-1.5-1.5-4 0-5.5l12.4-12.4c0.7-0.7 1.7-1.1 2.7-1.1 1 0 2 0.4 2.7 1.1 0.7 0.7 1.1 1.7 1.1 2.7s-0.4 2-1.1 2.7l-12.4 12.5zM933.8 353c1 0 2 0.4 2.7 1.1l12.4 12.4c0.7 0.7 1.1 1.7 1.1 2.7s-0.4 2-1.1 2.7c-1.5 1.5-4 1.5-5.5 0L931 359.5c-1.5-1.5-1.5-4 0-5.5 0.8-0.6 1.8-1 2.8-1zM910.7 339.2l-12.4-12.4c-0.7-0.7-1.1-1.7-1.1-2.7s0.4-2 1.1-2.7c0.7-0.7 1.7-1.1 2.7-1.1 1 0 2 0.4 2.7 1.1l12.4 12.4c1.5 1.5 1.5 4 0 5.5-1.4 1.4-3.9 1.4-5.4-0.1zM913.1 346.7c0 2.1-1.7 3.9-3.9 3.9h-17.6c-2.1 0-3.9-1.7-3.9-3.9 0-2.1 1.7-3.9 3.9-3.9h17.6c2.2 0 3.9 1.8 3.9 3.9zM955.6 350.6H938c-2.1 0-3.9-1.7-3.9-3.9 0-2.1 1.7-3.9 3.9-3.9h17.6c2.1 0 3.9 1.7 3.9 3.9 0 2.1-1.7 3.9-3.9 3.9zM923.7 382.5c-2.1 0-3.9-1.7-3.9-3.9V361c0-2.1 1.7-3.9 3.9-3.9 2.1 0 3.9 1.7 3.9 3.9v17.6c-0.1 2.2-1.8 3.9-3.9 3.9zM923.7 336.2c-2.1 0-3.9-1.7-3.9-3.9v-17.6c0-2.1 1.7-3.9 3.9-3.9 2.1 0 3.9 1.7 3.9 3.9v17.6c-0.1 2.1-1.8 3.9-3.9 3.9zM899.8-1h-25c-5.8 0-10.5 4.7-10.5 10.5S869 20 874.8 20h25c5.8 0 10.5-4.7 10.5-10.5s-4.7-10.5-10.5-10.5zM127.4-1h-32c-5.8 0-10.5 4.7-10.5 10.5S89.6 20 95.4 20h32c5.8 0 10.5-4.7 10.5-10.5s-4.7-10.5-10.5-10.5zM834.7-1H160.5c-5.8 0-10.5 4.7-10.5 10.5s4.7 10.5 10.5 10.5h674.3c5.8 0 10.5-4.7 10.5-10.5s-4.8-10.5-10.6-10.5zM275.7 502.5c-5.8 0-10.5 4.7-10.5 10.5v26.5c0 5.8 4.7 10.5 10.5 10.5s10.5-4.7 10.5-10.5V513c0-5.8-4.7-10.5-10.5-10.5zM275.7 349.3c-5.8 0-10.5 4.7-10.5 10.5v99.6c0 5.8 4.7 10.5 10.5 10.5s10.5-4.7 10.5-10.5v-99.6c0-5.8-4.7-10.5-10.5-10.5zM714 122.4v-4.6c0-10.7-8.8-19.5-19.5-19.5H335.6c-10.7 0-19.5 8.8-19.5 19.5v4.6c0 10.7 8.8 19.5 19.5 19.5h358.9c10.7 0 19.5-8.8 19.5-19.5zM694.5 94.7H294.6c-16.5 0-30 13.5-30 30v13.6c0 16.5 13.5 30 30 30h399.9c16.5 0 30-13.5 30-30v-13.6c0-16.5-13.5-30-30-30z m-399.9 52.7c-5 0-9-4-9-9v-13.6c0-5 4-9 9-9h399.9c5 0 9 4 9 9v13.6c0 5-4 9-9 9H294.6zM749.5-1H241.4c-29.2 0-52.9 23.7-52.9 52.9V411.6c0 5.8 4.7 10.5 10.5 10.5s10.5-4.7 10.5-10.5v-359.8c0-17.6 14.3-31.9 31.9-31.9h508.1c17.6 0 31.9 14.3 31.9 31.9V572.1c0 17.6-14.3 31.9-31.9 31.9H241.4c-17.6 0-31.9-14.3-31.9-31.9V527c0-5.8-4.7-10.5-10.5-10.5s-10.5 4.7-10.5 10.5v45.1c0 29.2 23.7 52.9 52.9 52.9h508.1c29.2 0 52.9-23.7 52.9-52.9v-520.3c0-29.1-23.7-52.8-52.9-52.8zM199 437.8c-5.8 0-10.5 4.7-10.5 10.5v42c0 5.8 4.7 10.5 10.5 10.5s10.5-4.7 10.5-10.5v-42c0-5.8-4.7-10.5-10.5-10.5z"  horiz-adv-x="1024" />

    
    <glyph glyph-name="jiahao-copy" unicode="&#58887;" d="M512 880.941176C237.929412 880.941176 15.058824 658.070588 15.058824 384S237.929412-112.94117600000004 512-112.94117600000004 1008.941176 109.92941199999996 1008.941176 384 786.070588 880.941176 512 880.941176z m256-542.117647h-210.823529v-210.823529h-90.352942v210.823529h-210.823529v90.352942h210.823529v210.823529h90.352942v-210.823529h210.823529v-90.352942z"  horiz-adv-x="1024" />

    
    <glyph glyph-name="xiangshangjiantouarrowup-copy" unicode="&#58882;" d="M880.101759 163.84343133000004c18.020155-17.819854 47.143649-17.819854 65.097286 0 17.953637 17.75333901 17.953637 46.610574 0 64.429405L544.042085 624.2268433300001c-18.020155 17.819854-47.077131 17.819854-65.097286 0L77.787839 228.27385933000005c-17.953637-17.819854-18.020155-46.610574 0-64.429405s47.210166-17.819854 65.097286-0.066515l368.641064 350.141612L880.101759 163.84343133000004 880.101759 163.84343133000004z"  horiz-adv-x="1024" />

    
    <glyph glyph-name="sousuo" unicode="&#58889;" d="M469.333 42.658c-211.754 0-384 172.245-384 384s172.246 384 384 384 384-172.245 384-384-172.245-384-384-384m542.208-97.877L829.952 126.413c67.84 81.365 108.715 186.026 108.715 300.245 0 259.2-210.134 469.333-469.334 469.333S0 685.858 0 426.658s210.133-469.333 469.333-469.333c114.219 0 218.88 40.874 300.246 108.714L951.21-115.55a42.778 42.778 0 0 1 60.33 0 42.778 42.778 0 0 1 0 60.33"  horiz-adv-x="1024" />

    
    <glyph glyph-name="check-circle" unicode="&#59261;" d="M699 543h-46.9c-10.2 0-19.9-4.9-25.9-13.3L469 311.70000000000005l-71.2 98.8c-6 8.3-15.6 13.3-25.9 13.3H325c-6.5 0-10.3-7.4-6.5-12.7l124.6-172.8c12.7-17.7 39-17.7 51.7 0l210.6 292c3.9 5.3 0.1 12.7-6.4 12.7zM512 832C264.6 832 64 631.4 64 384s200.6-448 448-448 448 200.6 448 448S759.4 832 512 832z m0-820c-205.4 0-372 166.6-372 372s166.6 372 372 372 372-166.6 372-372-166.6-372-372-372z"  horiz-adv-x="1024" />

    
    <glyph glyph-name="arrow-right" unicode="&#58986;" d="M290.54293333 795.66681125l68.3091437 70.70606221 478.16521956-475.76830102-478.16521956-475.76830104-68.3091437 70.70606223 402.6653203 405.06223881z"  horiz-adv-x="1024" />

    
    <glyph glyph-name="jiaobiaoxuanzhong" unicode="&#60174;" d="M691.2 170.666667l-38.4 38.4-46.933333-46.933334 81.066666-81.066666 46.933334 46.933333 85.333333 85.333333-42.666667 42.666667-85.333333-85.333333zM896 554.666667v-554.666667H341.333333L896 554.666667z"  horiz-adv-x="1024" />

    
    <glyph glyph-name="right" unicode="&#58884;" d="M348.99379407 378.31054615999994l422.93654668 422.9437849c17.77417782 17.76259666 17.77417782 46.59388232 1e-8 64.35792663-17.76259666 17.77417782-46.59388232 17.77417782-64.35792664 0l-455.12057675-455.12347204c-17.77852076-17.76259666-17.77852076-46.59388232 0-64.35792662l455.1220244-455.12202442c8.88419362-8.88853654 20.53194038-13.33425247 32.17823949-13.33425246s23.29549351 4.44571592 32.17823949 13.33425246c17.77852076 17.76259666 17.77852076 46.59388232 0 64.35792664l-422.93944197 422.94523255z"  horiz-adv-x="1024" />

    
    <glyph glyph-name="cuohao" unicode="&#58886;" d="M569.536 384l198.016 198.016a40.64 40.64 0 0 1 0 57.568 40.64 40.64 0 0 1-57.504 0L512 441.568 314.016 639.584a40.672 40.672 0 1 1-57.536-57.568L454.464 384l-198.016-198.016a40.704 40.704 0 1 1 57.568-57.568L512 326.432l198.016-198.016a40.704 40.704 0 1 1 57.568 57.568L569.536 384z"  horiz-adv-x="1024" />

    
    <glyph glyph-name="shouye" unicode="&#58897;" d="M954.17728 396.8c-6.4 0-19.2 6.4-25.6 6.4L493.37728 812.8 58.17728 409.6c-12.8-12.8-38.4-12.8-51.2 0-12.8 12.8-6.4 38.4 6.4 51.2L474.17728 889.6c12.8 6.4 32 6.4 44.8 0l460.8-428.8c12.8-12.8 12.8-32 0-51.2-6.4-6.4-19.2-12.8-25.6-12.8zM883.77728-128H589.37728c-19.2 0-32 12.8-32 32v236.8H435.77728v-236.8c0-19.2-12.8-32-32-32H102.97728c-19.2 0-32 12.8-32 32V345.6c0 19.2 12.8 38.4 32 38.4s32-12.8 32-32v-409.6h230.4v243.2c0 6.4 6.4 19.2 12.8 25.6 6.4 6.4 12.8 12.8 25.6 12.8h185.6c19.2 0 32-12.8 32-32v-243.2h230.4V345.6c0 19.2 12.8 32 32 32s32-12.8 32-32v-441.6c0-19.2-12.8-32-32-32z m0 755.2c-19.2 0-32 12.8-32 32v128h-153.6c-6.4 0-19.2 0-25.6 6.4-6.4 6.4-12.8 12.8-12.8 25.6 0 19.2 12.8 32 32 32h185.6c19.2 0 32-12.8 32-32v-160c12.8-19.2-6.4-32-25.6-32z m0 0"  horiz-adv-x="1024" />

    
    <glyph glyph-name="yingxiaoguanli" unicode="&#58898;" d="M512-121.6h390.4c64 0 121.6 57.6 121.6 121.6V620.8c0 19.2-12.8 38.4-32 38.4s-38.4-19.2-38.4-38.4V0c0-25.6-25.6-51.2-51.2-51.2H121.6c-25.6 0-51.2 25.6-51.2 51.2V768c0 25.6 25.6 57.6 51.2 57.6H563.2c19.2 0 38.4 19.2 38.4 38.4S582.4 896 563.2 896H121.6C51.2 889.6 0 838.4 0 768v-768c0-70.4 51.2-121.6 121.6-121.6M729.6 736L582.4 582.4 422.4 729.6c-19.2 12.8-38.4 12.8-51.2 0L134.4 499.2c-12.8-12.8-12.8-38.4 0-51.2 6.4-6.4 19.2-12.8 25.6-12.8 6.4 0 19.2 6.4 25.6 12.8l211.2 204.8 160-147.2c12.8-12.8 38.4-12.8 51.2 0l179.2 172.8 51.2-57.6c6.4-6.4 12.8-6.4 25.6-6.4 6.4 0 12.8 6.4 19.2 19.2l51.2 217.6c0 12.8-6.4 25.6-19.2 32h-12.8l-217.6-51.2c-12.8 0-19.2-19.2-19.2-32 0-6.4 0-6.4 6.4-12.8 6.4 6.4 57.6-51.2 57.6-51.2z m-544-537.6v-96c0-19.2 19.2-38.4 38.4-38.4s38.4 19.2 38.4 38.4v96c0 19.2-19.2 38.4-38.4 38.4-19.2-6.4-38.4-19.2-38.4-38.4z m243.2 211.2c-19.2 0-38.4-19.2-38.4-38.4v-268.8c0-19.2 19.2-38.4 38.4-38.4s38.4 19.2 38.4 38.4V371.2c-6.4 19.2-19.2 38.4-38.4 38.4z m166.4-76.8c-19.2 0-38.4-19.2-38.4-38.4v-192c0-19.2 19.2-38.4 38.4-38.4s38.4 19.2 38.4 38.4v192c0 19.2-19.2 38.4-38.4 38.4z m192 192c-19.2 0-38.4-19.2-38.4-38.4v-384c0-19.2 19.2-38.4 38.4-38.4s38.4 19.2 38.4 38.4v384c0 19.2-19.2 38.4-38.4 38.4z m0 0"  horiz-adv-x="1024" />

    
    <glyph glyph-name="hetongguanli" unicode="&#58899;" d="M806.4 761.6h-25.6 25.6z m25.6-6.4z m51.2-44.8l-6.4 6.4 6.4-6.4z m32-640H896V665.6v25.6-614.4h19.2z m19.2 6.4s-6.4 0-6.4-6.4c0 6.4 6.4 6.4 6.4 6.4zM992 870.4c-19.2 19.2-51.2 25.6-76.8 25.6H243.2c-25.6 0-57.6-6.4-76.8-25.6-19.2-19.2-32-44.8-32-70.4V768h-19.2c-32 0-57.6-12.8-76.8-25.6-25.6-25.6-38.4-51.2-38.4-76.8v-697.6c0-25.6 12.8-51.2 32-70.4 25.6-19.2 51.2-25.6 76.8-25.6h665.6c32 0 57.6 6.4 76.8 25.6 19.2 19.2 38.4 44.8 38.4 70.4V0h19.2c32 0 57.6 6.4 76.8 25.6 19.2 19.2 32 44.8 32 70.4v704c12.8 25.6 0 51.2-25.6 70.4z m-166.4-908.8s-12.8-19.2-44.8-19.2H102.4c-32 0-32 19.2-32 19.2V633.6c0 44.8 6.4 57.6 32 57.6h678.4c32 0 44.8-19.2 44.8-57.6v-672z m134.4 153.6c0-6.4-6.4-19.2-12.8-25.6l-6.4-6.4s-6.4 0-6.4-6.4h-6.4-25.6V665.6v25.6 6.4V704v6.4 6.4s0 6.4-6.4 6.4l-6.4 6.4c0 6.4-6.4 6.4-6.4 12.8l-6.4 6.4-6.4 6.4h-6.4c-6.4 0-12.8 6.4-12.8 6.4h-6.4-627.2v25.6 12.8c0 6.4 6.4 6.4 6.4 12.8 12.8 12.8 12.8 19.2 32 19.2h665.6c32 0 44.8-19.2 44.8-38.4v-678.4zM160 633.6h422.4v-70.4H160V633.6z m505.6-32c0 19.2 19.2 38.4 38.4 38.4s38.4-12.8 38.4-38.4c0-19.2-12.8-38.4-38.4-38.4-19.2 0-32 19.2-38.4 38.4zM70.4 512h755.2v-70.4H70.4V512z m0 0"  horiz-adv-x="1024" />

    
    <glyph glyph-name="kehuguanli" unicode="&#58900;" d="M467.2 275.2c-160 0-294.4 134.4-294.4 294.4C172.8 729.6 307.2 864 467.2 864c160 0 294.4-134.4 294.4-294.4 6.4-160-128-294.4-294.4-294.4z m0 505.6C352 780.8 262.4 691.2 262.4 576c0-115.2 89.6-204.8 204.8-204.8 115.2 0 204.8 89.6 204.8 204.8 6.4 108.8-89.6 204.8-204.8 204.8z m0 0M44.8-96c-25.6 0-44.8 19.2-44.8 44.8 0 192 211.2 345.6 467.2 345.6 108.8 0 217.6-25.6 300.8-83.2 19.2-12.8 25.6-38.4 12.8-57.6-12.8-19.2-38.4-25.6-57.6-12.8-70.4 44.8-160 70.4-256 70.4-211.2 0-384-115.2-384-256 6.4-32-12.8-51.2-38.4-51.2z m928 422.4h-166.4c-25.6 0-51.2 19.2-51.2 51.2 0 25.6 19.2 51.2 51.2 51.2h166.4c25.6 0 51.2-19.2 51.2-51.2 0-25.6-19.2-51.2-51.2-51.2z m0 0M972.8 115.2h-166.4c-25.6 0-51.2 19.2-51.2 51.2s19.2 51.2 51.2 51.2h166.4c25.6 0 51.2-19.2 51.2-51.2 0-25.6-19.2-51.2-51.2-51.2z m0-211.2h-166.4c-25.6 0-51.2 19.2-51.2 51.2s19.2 51.2 51.2 51.2h166.4c25.6 0 51.2-19.2 51.2-51.2 0-25.6-19.2-51.2-51.2-51.2z m0 0"  horiz-adv-x="1024" />

    
    <glyph glyph-name="jigouguanli" unicode="&#58901;" d="M960 256h-128V352c0 38.4-25.6 64-64 64H544V512H640c38.4 0 64 25.6 64 64V832c0 38.4-25.6 64-64 64H384c-38.4 0-64-25.6-64-64v-256c0-38.4 25.6-64 64-64h96v-96H256c-38.4 0-64-25.6-64-64V256H64c-38.4 0-64-25.6-64-64v-256c0-38.4 25.6-64 64-64h256c38.4 0 64 25.6 64 64v256c0 38.4-25.6 64-64 64H256V352h512V256h-64c-38.4 0-64-25.6-64-64v-256c0-38.4 25.6-64 64-64h256c38.4 0 64 25.6 64 64v256c0 38.4-25.6 64-64 64zM384 576V832h256v-256H384z m-64-384v-256H64v256h256z m640-256h-256v256h256v-256z m0 0"  horiz-adv-x="1024" />

    
    <glyph glyph-name="shezhi1" unicode="&#58903;" d="M659.2-96c-19.2 0-44.8 6.4-57.6 25.6-12.8 12.8-57.6 57.6-96 57.6-32 0-76.8-38.4-96-57.6-12.8-12.8-32-25.6-57.6-25.6-12.8 0-19.2 0-32 6.4l-128 70.4c-32 19.2-38.4 57.6-25.6 89.6 0 0 12.8 25.6 12.8 44.8 0 64-51.2 115.2-115.2 115.2-32 0-51.2 19.2-57.6 57.6 6.4 0-6.4 51.2-6.4 96 0 38.4 6.4 96 12.8 102.4 6.4 32 25.6 51.2 51.2 51.2 70.4 0 121.6 51.2 121.6 115.2 0 19.2-12.8 44.8-12.8 44.8-12.8 32 0 64 25.6 83.2L332.8 851.2c12.8 6.4 19.2 6.4 32 6.4 19.2 0 44.8-6.4 57.6-25.6 12.8-6.4 57.6-44.8 89.6-44.8 32 0 76.8 38.4 96 51.2 12.8 12.8 32 25.6 57.6 25.6 12.8 0 19.2 0 32-6.4l128-70.4c32-19.2 38.4-57.6 25.6-89.6 0 0-12.8-25.6-12.8-44.8 0-64 51.2-115.2 115.2-115.2 32 0 51.2-19.2 57.6-57.6 6.4 0 12.8-57.6 12.8-96 0-44.8-12.8-96-12.8-102.4-6.4-32-25.6-57.6-57.6-57.6-70.4 0-121.6-51.2-121.6-115.2 0-19.2 12.8-44.8 12.8-44.8 12.8-32 0-64-25.6-83.2l-128-70.4c-12.8-6.4-19.2-6.4-32-6.4zM512 70.4c32 0 70.4-12.8 108.8-44.8 19.2-12.8 32-25.6 38.4-38.4l102.4 57.6c-6.4 12.8-12.8 38.4-12.8 64 0 102.4 76.8 185.6 179.2 198.4 0 12.8 6.4 51.2 6.4 70.4 0 25.6-6.4 57.6-6.4 70.4-102.4 12.8-179.2 96-179.2 198.4 0 25.6 6.4 51.2 12.8 64L659.2 768c0 6.4-19.2-6.4-38.4-25.6-38.4-25.6-70.4-38.4-108.8-38.4-32 0-70.4 12.8-108.8 38.4l-38.4 38.4-108.8-57.6c6.4-12.8 12.8-38.4 12.8-64 0-102.4-76.8-185.6-179.2-198.4 0-19.2-6.4-51.2-6.4-70.4 0-25.6 6.4-57.6 6.4-70.4 102.4-12.8 179.2-96 179.2-198.4 0-25.6-6.4-51.2-12.8-64l102.4-57.6c6.4 6.4 19.2 19.2 38.4 32 38.4 19.2 76.8 38.4 115.2 38.4z m0 128c-102.4 0-185.6 83.2-185.6 185.6S409.6 569.6 512 569.6c102.4 0 185.6-83.2 185.6-185.6S614.4 198.4 512 198.4z m0 288c-57.6 0-102.4-44.8-102.4-102.4S454.4 281.6 512 281.6c57.6 0 102.4 44.8 102.4 102.4S563.2 486.4 512 486.4z m0 0"  horiz-adv-x="1024" />

    
    <glyph glyph-name="cebianlan-copy-copy" unicode="&#59264;" d="M307.47623677 652.52376322h716.06336843v-89.50792124H307.47623677zM307.47623677 204.98415802h716.06336843v-89.50792124H307.47623677zM307.47623677 428.75396036h716.06336843v-89.50792072H307.47623677z"  horiz-adv-x="1365" />

    
    <glyph glyph-name="zhanghu" unicode="&#58904;" d="M634.88 332.8c97.28 56.32 143.36 168.96 112.64 276.48C716.8 716.8 619.52 793.6 512 793.6 399.36 793.6 302.08 716.8 271.36 609.28c-30.72-107.52 15.36-220.16 112.64-276.48C245.76 281.6 153.6 148.48 153.6 0c0-15.36 15.36-25.6 30.72-25.6s25.6 10.24 30.72 25.6c0 163.84 133.12 296.96 296.96 296.96 163.84 0 296.96-133.12 296.96-296.96 0-15.36 15.36-25.6 30.72-25.6s25.6 10.24 30.72 25.6c0 148.48-92.16 281.6-235.52 332.8zM322.56 547.84c0 102.4 87.04 189.44 189.44 189.44s189.44-81.92 189.44-189.44c0-102.4-81.92-189.44-189.44-189.44-51.2 0-97.28 20.48-133.12 56.32-35.84 30.72-56.32 81.92-56.32 133.12z m0 0"  horiz-adv-x="1024" />

    
    <glyph glyph-name="mima" unicode="&#58905;" d="M737.28 486.4h-25.6V583.68c0 117.76-81.92 209.92-204.8 209.92-117.76 0-194.56-92.16-194.56-209.92V486.4h-25.6c-56.32 0-102.4-46.08-102.4-102.4v-307.2c0-56.32 46.08-102.4 102.4-102.4h455.68c56.32 0 102.4 46.08 102.4 102.4v307.2c-5.12 56.32-51.2 102.4-107.52 102.4zM358.4 583.68C358.4 670.72 419.84 742.4 512 742.4s153.6-71.68 153.6-158.72V486.4H358.4V583.68z m430.08-506.88c0-30.72-20.48-51.2-51.2-51.2H286.72c-25.6 0-51.2 20.48-51.2 51.2v307.2c0 30.72 20.48 51.2 51.2 51.2h455.68c25.6 0 51.2-20.48 51.2-51.2v-307.2zM512 332.8c-25.6 0-51.2-20.48-51.2-51.2 0-20.48 10.24-35.84 25.6-46.08v-81.92c0-15.36 10.24-25.6 25.6-25.6s25.6 10.24 25.6 25.6v81.92c15.36 10.24 25.6 25.6 25.6 46.08 0 30.72-25.6 51.2-51.2 51.2z m0 0"  horiz-adv-x="1024" />

    
    <glyph glyph-name="huanying" unicode="&#58906;" d="M409.6 353.28l30.72 153.6h40.96l-51.2-215.04h-30.72l-40.96 153.6L307.2 291.84h-30.72l-51.2 225.28h40.96l30.72-153.6 40.96 153.6h30.72L409.6 353.28zM634.88 394.24h-81.92v-71.68h102.4v-30.72H512V517.12h133.12V486.4h-102.4v-61.44h81.92v-30.72zM716.8 322.56h102.4v-30.72H686.08V517.12H716.8v-194.56zM1003.52 363.52c0-20.48-10.24-40.96-20.48-51.2-10.24-10.24-30.72-20.48-61.44-20.48-20.48 0-40.96 10.24-61.44 30.72-10.24 10.24-20.48 30.72-20.48 61.44v40.96c0 30.72 10.24 51.2 20.48 61.44 20.48 20.48 40.96 30.72 61.44 30.72 30.72 0 40.96-10.24 61.44-20.48s20.48-30.72 20.48-51.2h-30.72c0 10.24 0 30.72-10.24 30.72C952.32 486.4 942.08 486.4 921.6 486.4c-10.24 0-20.48-10.24-30.72-20.48-10.24-10.24-10.24-20.48-10.24-40.96V384c0-20.48 0-30.72 10.24-40.96 10.24-20.48 20.48-20.48 30.72-20.48 10.24 0 30.72 0 30.72 10.24 10.24 10.24 10.24 20.48 10.24 30.72h40.96zM1218.56 384c0-30.72-10.24-51.2-20.48-61.44-20.48-20.48-40.96-30.72-61.44-30.72-30.72 0-51.2 10.24-61.44 30.72-20.48 20.48-20.48 40.96-20.48 61.44v40.96c0 30.72 10.24 51.2 20.48 61.44 20.48 20.48 40.96 30.72 61.44 30.72 30.72 0 51.2-10.24 61.44-30.72s20.48-40.96 20.48-61.44V384z m-40.96 40.96c0 20.48 0 30.72-10.24 40.96-10.24 10.24-30.72 20.48-40.96 20.48-20.48 0-30.72-10.24-40.96-20.48-10.24-10.24-10.24-30.72-10.24-40.96V384c0-20.48 0-30.72 10.24-40.96 10.24-10.24 20.48-20.48 40.96-20.48s30.72 10.24 40.96 20.48c10.24 10.24 10.24 30.72 10.24 40.96v40.96zM1361.92 343.04l61.44 163.84h51.2v-215.04H1433.6V455.68l-61.44-153.6h-20.48l-61.44 163.84v-163.84h-40.96V517.12h51.2l61.44-174.08zM1638.4 394.24h-81.92v-71.68h102.4v-30.72h-133.12V517.12h133.12V486.4h-102.4v-61.44h81.92v-30.72zM1802.24 363.52h-40.96V517.12h40.96v-153.6z m0-71.68h-40.96v40.96h40.96v-40.96z"  horiz-adv-x="2048" />

    
    <glyph glyph-name="lajitong" unicode="&#58907;" d="M926.72 706.56H768V829.44c0 40.96-25.6 66.56-61.44 66.56H317.44C286.72 896 256 865.28 256 829.44v-128H97.28c-20.48 5.12-35.84-10.24-35.84-30.72 0-20.48 15.36-30.72 35.84-30.72h30.72v-640C128-71.68 184.32-128 256-128h512c71.68 0 128 56.32 128 128V640h30.72c20.48 0 30.72 15.36 30.72 30.72 5.12 20.48-10.24 35.84-30.72 35.84zM317.44 829.44h384v-128H317.44V829.44z m512-829.44c0-35.84-25.6-61.44-66.56-61.44H256c-35.84 0-61.44 25.6-61.44 61.44V640h640v-640z m-189.44 158.72V481.28c0 20.48-10.24 30.72-30.72 30.72-20.48 0-30.72-10.24-30.72-30.72v-322.56c0-20.48 10.24-30.72 30.72-30.72 20.48 0 30.72 10.24 30.72 30.72z m-225.28-30.72c20.48 0 30.72 15.36 30.72 30.72V481.28c0 20.48-15.36 30.72-30.72 30.72-20.48 0-30.72-10.24-30.72-30.72v-322.56c0-20.48 10.24-30.72 30.72-30.72z m0 0"  horiz-adv-x="1024" />

    
    <glyph glyph-name="doc" unicode="&#58911;" d="M764.753171 631.258537h144.858536l-144.858536 144.858536v-144.858536z m199.804878 19.980487c19.980488-19.980488 34.965854-49.95122 34.965853-79.921951v-634.380488c0-34.965854-29.970732-64.936585-64.936585-64.936585H265.240976c-34.965854 0-64.936585 29.970732-64.936586 64.936585v49.95122h49.95122v-49.95122c0-9.990244 9.990244-14.985366 14.985366-14.985365h664.351219c9.990244 0 14.985366 9.990244 14.985366 14.985365V566.321951v14.985366h-229.77561V816.078049h-449.560975c-9.990244 0-14.985366-9.990244-14.985366-14.985366v-149.853659h-49.95122v149.853659c0 34.965854 29.970732 64.936585 64.936586 64.936585h434.575609c29.970732 0 59.941463-9.990244 79.921952-34.965853l184.819512-179.824391z m-314.692683-244.760975v49.951219h234.770732v-49.951219h-234.770732z m0-149.853659v49.95122h234.770732v-49.95122h-234.770732z m0-149.853658v49.951219h234.770732v-49.951219h-234.770732z m-649.365854-74.92683V601.287805h564.448781v-564.448781H0.499512z m389.619512 154.848781L475.036098 446.439024H410.099512l-49.951219-189.814634-49.95122 189.814634h-49.951219l-49.95122-189.814634L155.348293 446.439024H90.411707l84.917073-259.746341h54.946342l49.951219 189.814634 49.95122-189.814634h59.941463z m0 0"  horiz-adv-x="1024" />

    
    <glyph glyph-name="xcel" unicode="&#58912;" d="M613.303181 351.624135h237.339778v-69.224102h-237.339778v69.224102z m0 138.448204h237.339778v-69.224102h-237.339778V490.072339z m0-276.896408h237.339778V143.951829h-237.339778v69.224102z m-613.12776 395.566297v-548.848237H549.023658V608.742228H0.175421z m346.12051-430.178348L272.12725 292.28919l-34.612051-49.445787h34.612051v-59.334944H104.011574l123.614468 178.004833-108.780732 158.226519h89.002417l64.279523-93.946996 64.279523 93.946996h89.002417l-108.780731-163.171098 123.614467-178.004833H346.295931z m593.349445 538.959079L811.08633 846.082006c-29.667472 29.667472-84.057838 49.445787-123.614468 49.445787H247.404357C202.903148 900.472371 173.235676 865.86032 173.235676 826.303691v-148.337361h59.334945v148.337361c0 9.889157 4.944579 14.833736 14.833736 14.833736H702.305598v-232.395199h232.395199V-53.831319c0-9.889157-4.944579-14.833736-14.833736-14.833736H247.404357c-9.889157 0-14.833736 4.944579-14.833736 14.833736v49.445787H173.235676v-49.445787c0-39.55663 34.612051-74.168681 74.168681-74.168681h672.462704c39.55663 0 74.168681 34.612051 74.168681 74.168681V569.185598c-4.944579 39.55663-29.667472 118.669889-54.390366 148.337361z m-182.949412-54.390366v148.337362l9.889157-9.889158L895.144168 673.021751l9.889157-9.889158h-148.337361z m0 0"  horiz-adv-x="1029" />

    
    <glyph glyph-name="xiaoxi" unicode="&#58913;" d="M594.917 751.601c0 43.804-37.123 79.478-82.916 79.478-45.7 0-82.918-35.585-82.918-79.478 0-4.473 0.386-8.86 1.13-13.133-114.498-38.254-208.43-155.73-208.43-294.718v-109.423s0-157.59-40.389-158.964c-24.082 0-42.528-17.792-42.528-39.74 0-22.1 18.557-39.738 41.452-39.738h663.366c23.005 0 41.451 17.791 41.451 39.737 0 22.104-18.557 39.741-41.45 39.741-41.466 0-41.466 157.854-41.466 157.854v110.52c0 139.166-87.828 256.69-208.409 294.828a76.963 76.963 0 0 1 1.107 13.036z m41.46-695.39c-0.123-65.905-55.285-119.29-124.377-119.29-68.617 0-124.255 53.164-124.379 119.29h248.757z"  horiz-adv-x="1024" />

    
    <glyph glyph-name="tubiao" unicode="&#58915;" d="M475.034 821.965C212.684 821.965 0 609.28 0 347.034 0 84.684 212.685-128 475.034-128s475.033 212.685 475.033 475.034H475.034V821.964zM548.966 896v-475.034H1024C1024 683.316 811.315 896 548.966 896z"  horiz-adv-x="1024" />

    
    <glyph glyph-name="tubiao1" unicode="&#58916;" d="M177.25 682.292h177.611v-599.438H177.25V682.292z m244.216-111.007h177.611v-488.431H421.466V571.285z m244.215-88.805h177.611v-399.625H665.681V482.48z"  horiz-adv-x="1024" />

    
    <glyph glyph-name="daoru1" unicode="&#58918;" d="M857.6-31.744h-576c-16.896 0-30.72 13.824-30.72 30.72v128c0 16.896 13.824 30.72 30.72 30.72s30.72-13.824 30.72-30.72v-97.28h514.56v706.56H312.32v-97.28c0-16.896-13.824-30.72-30.72-30.72s-30.72 13.824-30.72 30.72v128c0 16.896 13.824 30.72 30.72 30.72h576c16.896 0 30.72-13.824 30.72-30.72v-768c0-16.896-13.824-30.72-30.72-30.72zM162.304 410.624h479.232l-158.72 158.72c-13.312 12.8-13.312 34.816 0 47.616 13.312 13.312 34.816 13.312 47.616 0l214.016-213.504c13.312-12.8 13.312-34.816 0-47.616L530.432 142.336c-13.312-12.8-34.816-12.8-47.616 0-13.312 13.312-13.312 34.816 0 47.616L642.56 349.184H162.304c-16.896 0-30.72 13.824-30.72 30.72s13.312 30.72 30.72 30.72z"  horiz-adv-x="1024" />

    
    <glyph glyph-name="tuiguang" unicode="&#58919;" d="M875.3 774.5L642.1 619H305.2c-114 0-207.3-67.4-207.3-181.4 0-95.9 64.8-163.3 155.5-181.4v-207.3c0-28.5 23.3-51.8 51.8-51.8H383c28.5 0 51.8 23.3 51.8 51.8V256.2h207.3l233.3-155.5c28.5 0 51.8 23.3 51.8 51.8V722.7c0 28.5-23.3 51.8-51.9 51.8zM382.9 74.7c0-15.5-10.4-25.9-25.9-25.9h-25.9c-15.6 0-25.9 10.4-25.9 25.9V256.2H383v-181.5zM512.5 308H305.2c-51.8 0-155.5 15.6-155.5 129.6s101.1 132.2 155.5 129.6h207.3V308z m129.6 0h-77.7V567.2h77.7V308z m233.2-155.5L693.9 282.1v311l181.4 129.6v-570.2z m0 0"  horiz-adv-x="1024" />

    
    <glyph glyph-name="zhanghu1" unicode="&#58920;" d="M634.88 332.8c97.28 56.32 143.36 168.96 112.64 276.48C716.8 716.8 619.52 793.6 512 793.6c-112.64 0-209.92-76.8-240.64-184.32S286.72 389.12 384 332.8C245.76 281.6 153.6 148.48 153.6 0c0-15.36 15.36-25.6 30.72-25.6s25.6 10.24 30.72 25.6c0 163.84 133.12 296.96 296.96 296.96 163.84 0 296.96-133.12 296.96-296.96 0-15.36 15.36-25.6 30.72-25.6s25.6 10.24 30.72 25.6c0 148.48-92.16 281.6-235.52 332.8zM322.56 547.84c0 102.4 87.04 189.44 189.44 189.44s189.44-81.92 189.44-189.44c0-102.4-81.92-189.44-189.44-189.44-51.2 0-97.28 20.48-133.12 56.32-35.84 30.72-56.32 81.92-56.32 133.12z m0 0"  horiz-adv-x="1024" />

    
    <glyph glyph-name="tianjia" unicode="&#58921;" d="M510.352-16.416c-220.549 0-399.339 178.826-399.339 399.403s178.79 399.39 399.34 399.39c220.55 0 399.34-178.812 399.34-399.39s-178.79-399.403-399.34-399.403z m0 748.872c-192.982 0-349.42-156.462-349.42-349.469s156.438-349.47 349.42-349.47 349.421 156.463 349.421 349.47-156.439 349.469-349.42 349.469zM660.105 358.02H535.313v-124.81c0-13.78-11.175-24.958-24.959-24.958-13.784 0-24.957 11.179-24.957 24.957V358.02H360.602c-13.785 0-24.96 11.178-24.96 24.967 0 13.78 11.177 24.958 24.96 24.958h124.795V532.76c0 13.778 11.175 24.951 24.957 24.951 13.786 0 24.96-11.171 24.96-24.951v-124.816h124.79c13.787 0 24.96-11.177 24.96-24.958 0-13.79-11.173-24.966-24.96-24.966z"  horiz-adv-x="1024" />

    
    <glyph glyph-name="renlingqueren" unicode="&#58922;" d="M851.074 714.835H400.575c-61.895 0-112.625-50.73-112.625-112.625v-422.343c0-61.895 50.73-112.625 112.625-112.625h450.499c61.895 0 112.625 50.73 112.625 112.625V602.21c0 61.895-50.73 112.625-112.625 112.625z m0-56.312c31.069 0 56.313-25.244 56.313-56.313v-422.343c0-31.069-25.244-56.313-56.313-56.313H400.575c-31.069 0-56.313 25.244-56.313 56.313V602.21c0 31.069 25.244 56.313 56.313 56.313h450.499zM485.043 602.211c-15.534 0-28.157 12.622-28.157 28.157V742.993c0 15.534 12.622 28.157 28.157 28.157 15.534 0 28.157-12.622 28.157-28.157v-112.625c0-15.534-12.743-28.157-28.157-28.157z m281.562 0c-15.534 0-28.157 12.622-28.157 28.157V742.993c0 15.534 12.622 28.157 28.157 28.157 15.534 0 28.157-12.622 28.157-28.157v-112.625c0-15.534-12.743-28.157-28.157-28.157z m56.798-92.722c-10.923 10.923-28.884 10.923-39.807 0L584.561 310.454l-79.614 79.614c-10.923 10.923-28.884 10.923-39.807 0s-10.923-28.884 0-39.807l99.518-99.518c10.923-10.923 28.884-10.923 39.807 0l218.939 218.939c11.044 11.044 11.044 28.884 0 39.807z"  horiz-adv-x="1280" />

    
    <glyph glyph-name="dianhua" unicode="&#58924;" d="M432.137 307.041c-99.871 99.944-195.336 215.73-149.558 261.5 65.382 65.535 122.38 105.876 6.498 250.328C173.184 963.315 95.885 852.394 32.457 788.878c-73.082-73.236-3.844-346.226 265.635-616.116 269.482-269.773 542.176-339.221 615.311-265.927 63.432 63.457 174.15 140.794 29.956 256.89-144.195 116.107-184.551 59.036-250.001-6.495-45.773-45.649-161.35 49.873-261.22 149.811z"  horiz-adv-x="1024" />

    
    <glyph glyph-name="guaji" unicode="&#58925;" d="M739.556-3.386c-20.77 0-37.023 16.254-37.023 37.023V320.79c0 20.77 16.254 37.023 37.023 37.023s37.022-16.254 37.022-37.023v-288.96c0-18.06-16.253-35.216-37.022-35.216z m0 0M739.556-34.088l-148.092 144.48c-14.448 14.448-14.448 37.022 0 51.47s37.023 14.448 51.47 0l96.622-94.814 96.62 94.814c14.448 14.448 37.023 14.448 51.471 0 14.448-14.448 14.448-37.022 0-51.47l-148.091-144.48z m420.797 340.43l-191.436 24.381h-2.709c-9.933 1.806-18.963 4.515-27.09 8.127-8.127 4.515-16.254 12.642-22.575 20.769-6.32 8.127-9.933 18.963-12.642 27.09v1.806c-1.806 8.127-1.806 18.963 0 27.09v1.806l9.933 70.434c-4.515 8.127-12.642 24.38-41.538 28.896-43.344 8.127-88.494 12.642-131.837 12.642-43.344 0-88.494-4.515-131.838-12.642-27.09-4.515-37.023-20.77-41.538-28.896l9.933-72.24c1.806-9.933 1.806-20.769 0-28.896-1.806-9.933-6.321-18.963-12.642-27.09-6.321-8.127-14.448-14.448-22.575-18.963-8.127-4.515-16.254-8.127-27.09-8.127l-191.436-24.38h-4.515c-9.933 0-18.963 0-28.896 4.514s-20.769 8.127-28.896 16.254c-8.126 8.127-14.447 16.254-18.962 27.09-4.515 9.933-6.321 20.769-6.321 33.411 0 12.642 1.806 28.896 6.32 45.15v1.806c4.516 16.254 9.934 33.41 20.77 51.47 38.828 78.562 107.456 138.16 187.823 179.697 86.688 43.344 187.824 64.113 288.96 64.113s202.271-20.769 288.056-64.113c80.367-41.537 148.092-101.135 187.824-179.696 9.933-18.963 16.254-37.023 20.769-53.277 4.515-16.254 6.32-30.702 6.32-45.15 0-12.642-1.805-22.575-6.32-33.41l-1.806-1.807c-4.515-8.127-9.933-16.254-16.254-22.575-8.127-8.127-18.963-12.642-28.896-16.254h-1.806l-27.09-9.03z m0 0"  horiz-adv-x="1535" />

    
    <glyph glyph-name="dianhua1" unicode="&#58926;" d="M393.728 264.192c91.136-90.624 196.096-176.64 237.568-135.168 59.392 59.904 95.744 111.616 226.816 6.656S889.344-39.936 832-97.792c-66.048-66.56-313.856-4.608-559.104 239.616-245.76 244.224-309.248 491.52-243.2 558.592 57.344 57.856 126.976 158.72 232.96 28.16 105.472-130.56 54.272-167.424-5.12-227.328-41.472-41.984 45.568-146.944 136.192-237.056z m132.096 431.616s-27.648 4.096-46.592-14.848c-19.968-19.968-20.48-53.76 0-74.752 12.288-12.288 29.696-14.848 29.696-14.848 33.792-6.144 84.992-16.896 139.264-71.68 54.272-54.272 65.024-105.472 71.168-139.264 0 0 2.56-17.408 14.848-29.696 20.992-20.992 54.784-19.968 74.752 0 19.456 19.456 14.848 46.592 14.848 46.592-10.752 68.608-44.032 140.288-100.864 197.632-56.832 56.32-128.512 89.6-197.12 100.864z m257.024-41.472c99.328-99.84 141.824-212.992 128-304.64 0 0-4.608-29.184 14.336-48.128 21.504-21.504 55.296-19.968 74.752 0 12.8 12.8 15.36 33.792 15.36 33.792 11.264 79.36-3.072 238.592-157.696 393.728C702.464 884.224 543.744 898.56 464.384 887.296c0 0-20.992-2.56-33.792-15.36-19.968-19.968-20.992-53.76 0-75.264 18.944-18.944 47.616-14.336 47.616-14.336 92.672 14.336 205.312-28.16 304.64-128z"  horiz-adv-x="1024" />

    
    <glyph glyph-name="materialbohaojianpan" unicode="&#58927;" d="M512 85.333c-47.147 0-85.333-38.186-85.333-85.333s38.186-85.333 85.333-85.333 85.333 38.186 85.333 85.333-38.186 85.333-85.333 85.333z m-256 768c-47.147 0-85.333-38.186-85.333-85.333s38.186-85.333 85.333-85.333 85.333 38.186 85.333 85.333S303.147 853.333 256 853.333z m0-256c-47.147 0-85.333-38.186-85.333-85.333s38.186-85.333 85.333-85.333 85.333 38.186 85.333 85.333-38.186 85.333-85.333 85.333z m0-256c-47.147 0-85.333-38.186-85.333-85.333s38.186-85.333 85.333-85.333 85.333 38.186 85.333 85.333-38.186 85.333-85.333 85.333z m512 341.334c47.147 0 85.333 38.186 85.333 85.333S815.147 853.333 768 853.333 682.667 815.147 682.667 768s38.186-85.333 85.333-85.333zM512 341.333c-47.147 0-85.333-38.186-85.333-85.333s38.186-85.333 85.333-85.333 85.333 38.186 85.333 85.333-38.186 85.333-85.333 85.333z m256 0c-47.147 0-85.333-38.186-85.333-85.333s38.186-85.333 85.333-85.333 85.333 38.186 85.333 85.333-38.186 85.333-85.333 85.333z m0 256c-47.147 0-85.333-38.186-85.333-85.333s38.186-85.333 85.333-85.333 85.333 38.186 85.333 85.333-38.186 85.333-85.333 85.333z m-256 0c-47.147 0-85.333-38.186-85.333-85.333s38.186-85.333 85.333-85.333 85.333 38.186 85.333 85.333-38.186 85.333-85.333 85.333z m0 256c-47.147 0-85.333-38.186-85.333-85.333s38.186-85.333 85.333-85.333 85.333 38.186 85.333 85.333S559.147 853.333 512 853.333z"  horiz-adv-x="1024" />

    
    <glyph glyph-name="lurupingzheng" unicode="&#58928;" d="M904.533 725.333H119.467c-18.85 0-34.134-15.283-34.134-34.133v-614.4c0-18.85 15.284-34.133 34.134-34.133h785.066c18.85 0 34.134 15.283 34.134 34.133V691.2c0 18.85-15.284 34.133-34.134 34.133z m-17.066-631.466H136.533V674.133h750.934v-580.266zM401.067 537.6H230.4c-14.08 0-25.6 11.52-25.6 25.6 0 14.08 11.52 25.6 25.6 25.6h170.667c14.08 0 25.6-11.52 25.6-25.6 0-14.08-11.52-25.6-25.6-25.6zM401.067 418.133H230.4c-14.08 0-25.6 11.52-25.6 25.6 0 14.08 11.52 25.6 25.6 25.6h170.667c14.08 0 25.6-11.52 25.6-25.6 0-14.08-11.52-25.6-25.6-25.6zM401.067 298.667H230.4c-14.08 0-25.6 11.52-25.6 25.6 0 14.08 11.52 25.6 25.6 25.6h170.667c14.08 0 25.6-11.52 25.6-25.6 0-14.08-11.52-25.6-25.6-25.6zM401.067 179.2H230.4c-14.08 0-25.6 11.52-25.6 25.6 0 14.08 11.52 25.6 25.6 25.6h170.667c14.08 0 25.6-11.52 25.6-25.6 0-14.08-11.52-25.6-25.6-25.6zM785.067 179.2H563.2c-14.08 0-25.6 11.52-25.6 25.6 0 14.08 11.52 25.6 25.6 25.6h221.867c14.08 0 25.6-11.52 25.6-25.6 0-14.08-11.52-25.6-25.6-25.6zM811.145 534.434L636.91 360.201a5.05 5.05 0 0 0-2.253-1.306l-56.5-15.411c-3.796-1.033-7.27 2.449-6.237 6.238l15.411 56.499a5.05 5.05 0 0 0 1.306 2.253L762.87 582.707c9.848 9.848 25.959 9.848 35.806 0l12.468-12.467c9.838-9.847 9.838-25.958 0-35.806z"  horiz-adv-x="1024" />

    
    <glyph glyph-name="jiantou" unicode="&#58929;" d="M1766.4 588.8l-716.8-678.4c-51.2-51.2-128-51.2-179.2 0L153.6 588.8c-64 76.8-12.8 179.2 89.6 179.2H1664c115.2 0 166.4-102.4 102.4-179.2"  horiz-adv-x="1794" />

    
    <glyph glyph-name="cuowu" unicode="&#58930;" d="M512 841.5C259.34 841.5 54.5 636.66 54.5 384S259.34-73.5 512-73.5 969.5 131.34 969.5 384 764.66 841.5 512 841.5z m222.14-637.2l-42.42-42.42L522 331.58l-169.7-169.7-42.42 42.42L479.58 374l-169.7 169.7 42.42 42.42L522 416.42l169.7 169.7 42.42-42.42L564.42 374l169.72-169.7z"  horiz-adv-x="1024" />

    
    <glyph glyph-name="wenhao1" unicode="&#58931;" d="M512 896C229.19 896 0 666.81 0 384s229.19-512 512-512 512 229.19 512 512S794.81 896 512 896z m-6.516-812.59a43.287 43.287 0 1 0 0.046 86.62 43.287 43.287 0 0 0 0-86.62z m185.81 421.608c-2.514-46.313-16.71-82.85-87.693-153.833-35.98-35.98-58.693-62.976-60.974-86.667a36.026 36.026 0 1 0-71.727 7.075c4.888 49.896 41.519 90.205 81.78 130.513 64.513 64.512 65.63 84.992 66.7 106.682a92.625 92.625 0 0 1-26.39 69.12 112.36 112.36 0 0 1-81.176 34.584h-0.233a107.66 107.66 0 0 1-107.287-107.474 35.98 35.98 0 1 0-72.006 0c0 47.942 18.618 92.951 52.41 126.837a178.27 178.27 0 0 0 126.697 52.689 184.785 184.785 0 0 0 133.818-57.018 163.375 163.375 0 0 0 46.08-122.461z"  horiz-adv-x="1024" />

    
    <glyph glyph-name="tishi" unicode="&#58932;" d="M511.984 896A511.984 511.984 0 1 1 1024 384.016 511.984 511.984 0 0 1 511.984 896z m62.882-722.394c-4.92-45.614-50.762-65.782-88.328-49.85-19.908 8.439-30.562 25.349-34.83 46.233a113.807 113.807 0 0 0-1.205 12.511c0.39 15.118 2.965 29.584 13.032 41.51 13.456 16.29 31.441 22.61 51.935 21.568 40.433-2.053 63.794-32.353 59.526-71.972z m5.082 402.25c-3.453-22.612-11.11-46.56-15.736-69.855-5.8-29.063-11.404-58.647-15.867-87.97-4.269-28.052-7.038-57.31-10.329-85.493-1.4-11.99-2.541-25.446-3.812-38.088h-41.28a31.083 31.083 0 0 0-0.587 4.496c-4.659 35.449-8.7 73.015-14.205 108.3-5.213 33.397-11.664 66.662-18.344 99.798-4.137 20.428-10.132 40.498-14.955 60.764a110.255 110.255 0 0 0-2.736 26.488c2.867 26.066 18.538 51.903 51.446 59.005a195.228 195.228 0 0 0 28.313 1.401c26.065-2.183 47.764-16.812 56.268-41.476a75.426 75.426 0 0 0 1.824-37.37z"  horiz-adv-x="1024" />

    
    <glyph glyph-name="charuziduan" unicode="&#58933;" d="M512 817.23a433.23 433.23 0 1 1 0-866.46 433.23 433.23 0 0 1 0 866.46zM512 896a512 512 0 1 0 0-1024A512 512 0 0 0 512 896z m-39.385-236.308v-551.384h78.77V659.692h-78.77zM236.308 344.615h551.384v78.77H236.308v-78.77z"  horiz-adv-x="1024" />

    
    <glyph glyph-name="dayin" unicode="&#58934;" d="M896 672.256h-63.488V896h-640v-223.744H128c-70.656 0-128-57.344-128-128V128h191.488v-256h640V128H1024V543.744c0 71.168-57.344 128.512-128 128.512zM256 832h512v-159.744H256V832z m512-896H256V223.744h512V-64z m192 256H832v95.744H192V192H64V543.744c0 35.328 28.672 64 64 64h768c35.328 0 64-28.672 64-64V192zM512 512H225.28c-17.408 0-33.28-13.824-33.28-31.232-0.512-17.92 13.824-32.768 31.744-32.768h286.72c17.408 0 33.28 13.824 33.28 31.232C544.256 497.152 529.92 512 512 512z"  horiz-adv-x="1024" />

    
    <glyph glyph-name="shanchu" unicode="&#58935;" d="M733.855 104.055c0-26.574-21.63-48.203-48.202-48.203H338.347c-26.573 0-48.202 21.63-48.202 48.203V615.743h443.71v-511.688zM386.55 702.26c0 5.562 4.326 9.888 9.888 9.888H628.18c5.562 0 9.888-4.326 9.888-9.888v-29.045H386.55V702.26z m491.913-29.045H695.54V702.26c0 37.08-30.28 67.36-67.36 67.36H396.438c-37.08 0-67.36-30.28-67.36-67.36v-29.045h-183.54c-16.068 0-29.046-12.978-29.046-29.045s12.978-29.045 29.045-29.045h86.518v-511.07c0-58.709 47.584-106.293 106.292-106.293h347.306c58.708 0 106.292 47.584 106.292 106.293V615.743h86.518c16.067 0 29.045 12.977 29.045 29.045s-12.978 28.427-29.045 28.427zM512 142.987c16.068 0 29.045 12.978 29.045 29.046v308.99c0 16.068-12.977 29.045-29.045 29.045s-29.045-12.977-29.045-29.045v-308.99c0-16.068 12.977-29.046 29.045-29.046m-135.338 0c16.068 0 29.045 12.978 29.045 29.046v308.99c0 16.068-12.977 29.045-29.045 29.045s-29.045-12.977-29.045-29.045v-308.99c0.618-16.068 13.596-29.046 29.045-29.046m270.676 0c16.067 0 29.045 12.978 29.045 29.046v308.99c0 16.068-12.978 29.045-29.045 29.045s-29.045-12.977-29.045-29.045v-308.99c0-16.068 12.977-29.046 29.045-29.046"  horiz-adv-x="1024" />

    
    <glyph glyph-name="kuaijiejian" unicode="&#58936;" d="M225.707 820.047h805.01a134.168 134.168 0 0 0 134.169-134.168V82.12a134.168 134.168 0 0 0-134.168-134.168H225.707A134.168 134.168 0 0 0 91.539 82.12V685.88A134.168 134.168 0 0 0 225.707 820.047z m0-67.084a67.084 67.084 0 0 1-67.084-67.084V82.12a67.084 67.084 0 0 1 67.084-67.084h805.01a67.084 67.084 0 0 1 67.085 67.084V685.88a67.084 67.084 0 0 1-67.084 67.084H225.707z m100.626-290.877a33.542 33.542 0 0 0 0 67.084h67.085a33.542 33.542 0 1 0 0-67.084h-67.085z m201.253 0a33.542 33.542 0 0 0 0 67.084h67.084a33.542 33.542 0 1 0 0-67.084h-67.084zM326.333 216.289a33.542 33.542 0 1 0 0 67.085h67.085a33.542 33.542 0 1 0 0-67.085h-67.085z m201.253 0a33.542 33.542 0 1 0 0 67.085h67.084a33.542 33.542 0 1 0 0-67.085h-67.084z m403.78 277.73a33.542 33.542 0 1 0 67.084 0v-244.187a33.542 33.542 0 0 0-33.542-33.543h-236.07a33.542 33.542 0 1 0 0 67.085h202.528V494.018z m-202.527-31.866a33.542 33.542 0 0 0 0 67.084h67.084a33.542 33.542 0 1 0 0-67.084h-67.084z"  horiz-adv-x="1260" />

    
    <glyph glyph-name="xiugai" unicode="&#58937;" d="M912.96 493.237a36.526 36.526 0 0 0 73.053 0v-487.04c0-73.929-59.976-133.905-133.978-133.905H170.238A133.905 133.905 0 0 0 36.333 6.197v681.87c0 73.929 59.903 133.905 133.905 133.905h389.66a36.526 36.526 0 0 0 0-73.053h-389.66a60.853 60.853 0 0 1-60.853-60.852v-681.87c0-33.604 27.249-60.853 60.853-60.853h681.797c33.604 0 60.925 27.249 60.925 60.853v487.04zM855.03 866.534a73.052 73.052 0 1 0 115.276-89.709L458.94 119.355a73.052 73.052 0 1 0-115.276 89.708L855.03 866.533z"  horiz-adv-x="1024" />

    
    <glyph glyph-name="jian" unicode="&#58938;" d="M512.233 832.86c-246.762 0-446.709-199.947-446.709-446.709 0-246.703 199.947-446.709 446.71-446.709s446.71 199.947 446.71 446.709S758.935 832.86 512.233 832.86z m0-833.798c-213.825 0-387.148 173.383-387.148 387.148 0 213.825 173.323 387.149 387.148 387.149S899.382 600.035 899.382 386.21c-0.06-213.826-173.324-387.148-387.149-387.148zM734.102 417.117H289.36c-18.365 0-33.253-14.888-33.253-33.253 0-18.365 14.888-33.253 33.253-33.253h444.743c18.366 0 33.254 14.888 33.254 33.253 0 18.365-14.888 33.253-33.254 33.253z"  horiz-adv-x="1024" />

    
    <glyph glyph-name="jia" unicode="&#58939;" d="M512 750.848c202.28 0 366.848-164.568 366.848-366.848S714.262 17.152 512 17.152 145.152 181.72 145.152 384 309.72 750.848 512 750.848m0 55.027C278.997 805.875 90.125 616.985 90.125 384c0-233.003 188.872-421.875 421.875-421.875S933.875 150.997 933.875 384c0 232.985-188.89 421.875-421.875 421.875zM722.938 384c0-17.462-14.16-31.64-31.641-31.64H332.703a31.64 31.64 0 0 0 0 63.28h358.612c17.462 0 31.622-14.178 31.622-31.64zM512 594.937c17.462 0 31.64-14.16 31.64-31.64v-358.612a31.64 31.64 0 0 0-63.28 0V563.297c0 17.48 14.178 31.64 31.64 31.64z"  horiz-adv-x="1024" />

    
    <glyph glyph-name="duoxuanxuanzhong" unicode="&#58941;" d="M921.6 844.8H102.4c-30.72 0-51.2-20.48-51.2-51.2v-819.2c0-30.72 20.48-51.2 51.2-51.2h819.2c30.72 0 51.2 20.48 51.2 51.2V793.6c0 30.72-20.48 51.2-51.2 51.2z m-66.56-296.96c-35.84-30.72-276.48-266.24-389.12-389.12-40.96-46.08-76.8 0-76.8 0L163.84 389.12c-35.84 35.84 20.48 102.4 71.68 46.08l194.56-194.56 373.76 373.76c35.84 35.84 97.28-20.48 51.2-66.56z"  horiz-adv-x="1024" />

    
    <glyph glyph-name="duihao1" unicode="&#58948;" d="M512 896a512 512 0 1 1 0-1024A512 512 0 0 1 512 896z m321.097-343.04L421.45 141.385a20.626 20.626 0 0 0-11.995-5.924 22.455 22.455 0 0 0-22.163 5.558l-212.48 212.554a22.235 22.235 0 0 0 0 31.451l26.405 26.405a22.455 22.455 0 0 0 31.525 0l171.52-171.52 370.98 370.98a22.09 22.09 0 0 0 31.159-0.804l25.893-25.893a22.09 22.09 0 0 0 0.804-31.232z"  horiz-adv-x="1024" />

    
    <glyph glyph-name="weixianwupin" unicode="&#58949;" d="M1233.735-69.538c0-31.833-25.603-57.595-57.303-57.857v-0.605H58.358v0.603c-0.189 0-0.34-0.076-0.527-0.076C25.884-127.471 0-101.523 0-69.538c0 11.694 3.52 22.515 9.469 31.606l-0.34 0.225L568.187 869.9l0.3-0.207C578.84 885.514 596.613 896 616.868 896c21.05 0 39.307-11.39 49.398-28.249l0.337 0.207 559.038-907.625-0.339-0.186c5.234-8.715 8.434-18.786 8.434-29.685z m-539.76 637.255c0 42.657-34.524 77.243-77.108 77.243s-77.108-34.586-77.108-77.243v-289.662c0-42.657 34.525-77.242 77.108-77.242s77.109 34.585 77.109 77.242V567.717zM616.868 142.88c-42.583 0-77.108-34.584-77.108-77.242 0-42.656 34.525-77.243 77.108-77.243s77.109 34.587 77.109 77.243-34.525 77.242-77.109 77.242z"  horiz-adv-x="1234" />

    
    <glyph glyph-name="zeng" unicode="&#58950;" d="M25.689 852.369h979.478L25.69-127.11V852.37z m284.405-80.585l-32.056-5.342c8.014-16.028 15.138-33.392 21.37-52.536h-52.09v-154.045h214.595V713.906h-52.09c7.568 16.918 13.356 35.172 17.363 55.207l-30.72 4.452c-3.562-20.48-9.35-40.515-16.918-59.659h-50.755c-5.788 21.37-12.02 40.96-18.7 57.878zM446.33 533.148H264.682V363.52h29.83v19.59H416.5v-19.59h29.83V533.148zM224.167 750.859H83.923V476.16h28.05V722.365h84.145v-244.424h28.049V750.859z m-42.296-293.843l-19.59-18.7c23.152-23.596 41.851-45.857 55.208-67.227l22.26 21.815c-16.027 21.37-35.172 42.741-57.878 64.112z m-39.624 239.081v-144.25c-0.89-41.85-6.678-76.132-16.918-102.4-11.13-25.377-31.166-45.857-59.66-60.995l16.474-25.822c29.83 16.027 51.2 37.843 64.556 66.337 12.911 30.72 20.035 71.68 20.925 122.88v144.25h-25.377z m152.264-286.72V445.44h121.99v-36.063H294.51z m0 60.105v36.953h121.99v-36.953H294.51zM434.31 587.019h-67.228v99.729h67.228v-99.729z m-93.496 0h-65.892v99.729h65.892v-99.729z m-32.501 80.584l-19.59-6.233c7.57-18.699 13.802-38.288 18.7-58.768l19.144 4.897c-5.343 22.706-11.576 42.741-18.254 60.104z m91.715 1.781c-5.788-24.041-12.466-44.521-20.035-60.55l20.48-7.568c8.014 18.254 15.137 39.18 20.48 62.776l-20.925 5.342z"  horiz-adv-x="1024" />

    
    <glyph glyph-name="zeng1" unicode="&#58951;" d="M763.003 561.096h130.401v-36.849H763.003v36.849z m0-61.548h130.401v-37.238H763.003v37.238zM0 896l510.295-513.705L1029.12-128V896H0z m562.893-108.667h129.966v-245.842h-27.233V761.856h-75.51v-222.71h-27.233l0.01 248.187z m132.429-346.588c-18.96 24.822-40.561 49.659-64.768 74.486-12.647-38.943-33.28-69.648-61.891-92.135a222.812 222.812 0 0 1-21.448 23.532c44.565 32.404 66.842 81.802 66.842 148.188V726.164h27.233v-129.003c-0.266-25.354-3.169-49.91-8.663-73.708l15.678 12.954c27.233-26.926 51.445-52.035 72.627-75.28-0.01 0-25.61-20.382-25.61-20.382z m226.124-21.586h-28.042v18.053H763.003v-18.053H734.96v167.04h186.49l-0.005-167.04z m16.103 185.85h-26.414v12.555H744.858v-12.554h-26.414V754.775h60.661c-11.28 15.17-21.463 27.704-30.53 37.637l21.447 15.304c11.551-11.249 23.378-23.931 35.482-38.037l-19.799-14.91h54.876a578.16 578.16 0 0 1 40.428 52.947l25.6-16.476a1507.517 1507.517 0 0 0-31.775-36.465h62.725l-0.01-149.765zM744.858 641.879h69.724v88.586h-69.724v-88.586z m30.525 75.254c11.566-18.55 21.176-35.4 28.877-50.57L780.329 655.2a519.316 519.316 0 0 1-26 50.57l21.054 11.362z m65.613-75.254h70.139v88.586h-70.14v-88.586z m37.125 74.88l22.303-11.377c-8.27-18.56-17.224-35.42-26.834-50.57l-22.702 11.756c9.083 14.126 18.17 30.853 27.233 50.191z"  horiz-adv-x="1029" />

    
    <glyph glyph-name="jiajian-" unicode="&#58952;" d="M230.896 414.358h562.208a30.358 30.358 0 0 0 0-60.716H230.896a30.358 30.358 0 1 0 0 60.716zM481.642 102.896V665.104a30.358 30.358 0 0 0 60.716 0v-562.208a30.358 30.358 0 1 0-60.716 0z"  horiz-adv-x="1024" />

    
    <glyph glyph-name="jiajian-1" unicode="&#58953;" d="M70.433 441.09h883.134c26.214 0 47.768-21.555 47.768-47.77 0-26.214-21.554-47.768-47.768-47.768H70.433c-26.214 0-47.768 21.554-47.768 47.769 0 26.797 21.554 47.768 47.768 47.768z"  horiz-adv-x="1024" />

    
    <glyph glyph-name="qiaquanyishixiao" unicode="&#58954;" d="M769.6 428.8l-9.6 38.4-19.2-4.8c3.2-11.2 6.4-24 9.6-38.4l19.2 4.8zM684.516 440.748l125.18-33.54-4.554-17-125.18 33.54 4.554 17zM790.4 339.2c-9.6 20.8-17.6 36.8-25.6 51.2l-16-8c9.6-19.2 17.6-36.8 24-52.8l17.6 9.6zM841.6 248c24 24 44.8 59.2 62.4 107.2l17.6-4.8 4.8 17.6-80 20.8C856 401.6 864 416 872 432l-19.2 8c-16-35.2-38.4-65.6-65.6-88 3.2-6.4 6.4-12.8 8-19.2 6.4 4.8 12.8 11.2 17.6 16-4.8-33.6-3.2-65.6 3.2-96-20.8-16-44.8-28.8-73.6-38.4 4.8-8 8-14.4 9.6-19.2 27.2 9.6 51.2 20.8 70.4 36.8 8-22.4 22.4-44.8 40-64 4.8 4.8 11.2 11.2 19.2 16-17.6 20.8-30.4 41.6-40 64z m-4.8 126.4l48-12.8C872 324.8 856 294.4 835.2 272c-6.4 30.4-6.4 64 1.6 102.4zM726.4 388.8L712 403.2c-20.8-19.2-40-33.6-56-44.8 4.8-6.4 8-11.2 11.2-16 22.4 16 41.6 30.4 59.2 46.4zM731.2 286.4c12.8 11.2 24 24 35.2 38.4l-16 14.4c-9.6-12.8-19.2-24-30.4-35.2-8 14.4-16 27.2-24 41.6l-16-8c8-14.4 16-30.4 25.6-46.4-22.4-19.2-48-32-76.8-40 3.2-8 6.4-14.4 8-19.2 14.4 6.4 32 17.6 48 32-1.6-4.8-4.8-9.6-8-16 12.8 6.4 25.6 16 38.4 25.6 6.4-12.8 14.4-27.2 20.8-43.2l20.8 9.6c-8 16-17.6 32-25.6 46.4zM444.8 475.2l33.6-9.6c8 3.2 16 8 22.4 14.4l-41.6 11.2c8 9.6 14.4 19.2 22.4 30.4L464 532.8c-17.6-30.4-40-54.4-67.2-75.2 4.8-6.4 9.6-11.2 12.8-16 11.2 11.2 24 22.4 35.2 33.6zM512 380.8L619.2 352l4.8 19.2L515.2 400c4.8 12.8 9.6 30.4 16 51.2l94.4-25.6 4.8 19.2-92.8 25.6c4.8 14.4 9.6 32 14.4 49.6l-20.8 6.4c-4.8-17.6-9.6-35.2-14.4-49.6l-6.4 1.6c-3.2-6.4-6.4-11.2-11.2-17.6l11.2-3.2c-6.4-22.4-11.2-40-16-51.2L384 436.8l-4.8-19.2 107.2-28.8c-22.4-36.8-67.2-57.6-136-62.4 4.8-9.6 8-17.6 9.6-24 67.2 9.6 112 32 136 67.2 4.8-46.4 32-86.4 83.2-121.6 6.4 4.8 12.8 11.2 20.8 16-54.4 32-83.2 70.4-88 116.8zM265.6 256L38.4 316.8c-11.2 3.2-19.2 16-16 27.2l12.8 46.4c-8-1.6-16-1.6-24-1.6l-9.6-38.4c-6.4-24 8-48 30.4-54.4l188.8-51.2c12.8 1.6 32 4.8 44.8 11.2zM324.8 240c-9.6-3.2-19.2-6.4-27.2-4.8-6.4 1.6-11.2 8-12.8 16l-16 4.8-14.4-19.2L481.6 176c8 4.8 17.6 11.2 27.2 16l-184 48zM38.4 400l70.4 262.4c3.2 11.2 16 19.2 27.2 16l723.2-193.6c-4.8 8-4.8 19.2-4.8 24l-684.8 184c4.8-6.4 11.2-12.8 17.6-17.6-12.8 3.2-35.2 12.8-49.6 25.6-22.4 3.2-44.8-9.6-49.6-32L17.6 408c6.4-3.2 12.8-4.8 20.8-8zM907.2 92.8c-4.8-3.2-11.2-4.8-17.6-3.2l-275.2 73.6c-25.6 4.8-65.6 9.6-107.2 6.4l377.6-100.8c3.2-1.6 8-1.6 11.2-1.6 1.6 6.4 6.4 14.4 11.2 25.6zM961.6 264s6.4-4.8 16-9.6l43.2 164.8c6.4 24-8 48-30.4 54.4l-129.6 35.2c14.4-8 43.2-22.4 75.2-25.6-8-3.2-22.4-6.4-35.2-8l83.2-22.4c11.2-3.2 19.2-16 16-27.2L918.4 120c3.2-12.8 4.8-28.8 1.6-43.2 6.4 6.4 12.8 14.4 16 24L971.2 232c-11.2 6.4-9.6 32-9.6 32zM313.6 412.8c-6.4-17.6-12.8-30.4-17.6-40-6.4-9.6-16-12.8-30.4-8l-123.2 33.6c-14.4 3.2-19.2 12.8-16 27.2-8 4.8-14.4 12.8-14.4 12.8s8 1.6 19.2 4.8l16 57.6 148.8-40-4.8-16 20.8-6.4 32 118.4-201.6 56-4.8-19.2 179.2-48-16-65.6L152 520l9.6 35.2-22.4 4.8L104 428.8c-6.4-27.2 1.6-43.2 27.2-49.6L264 344c22.4-6.4 40 0 49.6 17.6 4.8 9.6 11.2 22.4 19.2 40-8 3.2-14.4 8-19.2 11.2z"  horiz-adv-x="1024" />

    
    <glyph glyph-name="top-caozuoshouce" unicode="&#58955;" d="M865.28-128H158.72c-53.248 0-97.28 43.52-97.28 96.768V799.232C61.44 852.48 104.96 896 158.72 896h510.976l269.312-224.256 24.064-24.064v-678.912c-1.024-53.76-44.544-96.768-97.792-96.768zM158.72 835.072c-14.336 0-36.864-22.016-36.864-36.864v-829.952c0-14.336 22.016-36.864 36.864-36.864h716.8c14.336 0 36.864 22.016 36.864 36.864l-10.24 650.24-0.512 0.512L644.096 835.072H158.72zM949.76 572.928H695.808c-53.248 0-87.04 33.28-87.04 86.528V885.76h60.416v-225.792c0-14.336 11.776-26.624 26.624-26.624H949.76v-60.416zM754.688 394.24H271.872c-19.456 0-34.816 13.312-34.816 29.696s15.872 29.696 34.816 29.696h482.304c19.456 0 35.84-13.312 35.84-29.696s-16.384-29.696-35.328-29.696z m0-208.896H271.872c-19.456 0-34.816 13.312-34.816 29.696s15.872 29.696 34.816 29.696h482.304c19.456 0 35.84-13.312 35.84-29.696s-16.384-29.696-35.328-29.696z"  horiz-adv-x="1024" />

    
    <glyph glyph-name="xiaoxi1" unicode="&#58956;" d="M850.532669 261.872619V456.07043a346.915661 346.915661 0 0 1-251.387754 332.459675V801.729092a94.269908 94.269908 0 0 1-188.541816 0v-13.196987A346.915661 346.915661 0 0 1 159.215345 456.06943v-194.197811a94.269908 94.269908 0 0 1 31.423969-182.884821h97.412905a218.707786 218.707786 0 0 1 436.786573 0h94.269908a94.269908 94.269908 0 0 1 31.423969 182.884821zM473.450038 801.729092a31.423969 31.423969 0 0 0 62.846938 0 262.699743 262.699743 0 0 1-62.846938 0z m31.423969-848.434171a157.117847 157.117847 0 0 0-153.97485 125.693877h311.092697a157.117847 157.117847 0 0 0-157.117847-125.693877z m314.234693 188.540815H190.640314a31.423969 31.423969 0 0 0 0 62.846939h31.422969V456.07043a282.811724 282.811724 0 0 0 565.623448 0v-251.388755h31.422969a31.423969 31.423969 0 0 0 0-62.846939z"  horiz-adv-x="1024" />

    
    <glyph glyph-name="fankui" unicode="&#58957;" d="M353.714 391.346c-21.66 0-39.29 17.628-39.29 39.289s17.63 39.296 39.29 39.296 39.289-17.629 39.289-39.296-17.629-39.29-39.29-39.29z m157.162 0c-21.66 0-39.296 17.628-39.296 39.289s17.629 39.296 39.296 39.296c21.66 0 39.29-17.629 39.29-39.296s-17.63-39.29-39.29-39.29z m157.163 0c-21.66 0-39.289 17.628-39.289 39.289s17.629 39.296 39.29 39.296 39.295-17.629 39.295-39.296-17.635-39.29-39.296-39.29zM521.984 5.93a28.47 28.47 0 0 0-21.028 9.287L404.46 121.145h-159.9c-58.461 0-106.013 47.559-106.013 106.012V615.381c0 58.46 47.559 106.013 106.012 106.013h534.89c58.461 0 106.013-47.56 106.013-106.013v-388.23c0-58.461-47.559-106.013-106.012-106.013l-155.549-2.56-79.502-101.718a28.417 28.417 0 0 0-22.414-10.93zM244.558 664.505c-27.093 0-49.123-22.037-49.123-49.124v-388.23c0-27.094 22.037-49.124 49.123-49.124h172.466c8 0 15.637-3.378 21.028-9.287l82.268-90.304 67.115 85.866a28.41 28.41 0 0 0 21.945 10.923l169.6 2.795c27.555 0.007 49.592 22.044 49.592 49.13V615.381c0 27.094-22.037 49.124-49.123 49.124h-534.89z"  horiz-adv-x="1024" />

    
    <glyph glyph-name="shujuqianyi" unicode="&#58965;" d="M895.47 688.772H576.397L394.52 783.234l-265.997-0.002c-35.49 0-64.303-28.831-64.303-64.271v-669.839c0-35.48 28.813-64.357 64.303-64.357h766.947c35.49 0 64.308 28.878 64.308 64.357V624.455c0 35.486-28.818 64.317-64.308 64.317z m-2.494-638.379l-761.954-1.269-2.498 668.48H377.91l181.87-94.458 333.197 1.31v-574.063h-0.001zM241.64 373.848v-67.115h335.912l0.089-82.603L782.359 340.42 577.463 456.407l0.044-82.56H241.64z"  horiz-adv-x="1024" />

    
    <glyph glyph-name="dianhua2" unicode="&#58970;" d="M778.8292 659.936c99.584-99.616 142.048-212.64 128.224-304.224 0 0-4.8-29.024 14.112-47.968a53.248 53.248 0 0 1 75.072-0.128c12.832 12.8 15.648 33.696 15.648 33.696 11.424 79.136-2.944 238.4-158.144 393.536C698.5732 890.016 539.3412 904.384 460.2052 892.96c0 0-20.864-2.752-33.696-15.616a53.248 53.248 0 0 1 0.128-75.072c18.944-18.944 47.968-14.112 47.968-14.112 91.584 13.824 204.608-28.64 304.224-128.224m-257.6 40.96s-27.456 4.288-46.688-14.944a53.44 53.44 0 0 1 0.224-74.72c12.32-12.32 29.696-14.944 29.696-14.944 33.888-6.368 84.928-17.12 139.264-71.456 54.336-54.304 65.088-105.376 71.456-139.264 0 0 2.624-17.376 14.944-29.728a53.44 53.44 0 0 1 74.72-0.192c19.232 19.232 14.944 46.72 14.944 46.72a360.96 360.96 0 0 1-101.12 197.408 361.152 361.152 0 0 1-197.44 101.12M389.2612 269.824c91.008-90.368 196.384-176.672 237.76-135.008 59.2 59.648 95.68 111.584 227.104 6.752 131.424-104.864 31.04-175.424-26.336-233.248-66.176-66.688-314.112-4.672-559.872 239.232C22.1572 391.488-41.7468 638.944 24.4932 705.664c57.376 57.824 127.2 158.688 232.992 28.032 105.824-130.592 54.208-167.456-5.024-227.136-41.344-41.664 45.76-146.368 136.8-236.736"  horiz-adv-x="1024" />

    
    <glyph glyph-name="dingdan" unicode="&#58972;" d="M917.302 867.563H759.088s1.76-129.777-62.223-129.777-337.579-3.537-362.654-3.537c-37.376 0-65.778 39.118-67.555 133.332H108.442S30.224 832 30.224 782.236V-44.82S44.442-128 88.892-128h839.074s65.777 31.111 65.777 83.11V782.166s-37.323 85.327-76.44 85.327zM783.97 126.416H243.551v81.456h540.42V126.4z m0 202.664H243.551v81.386h540.42v-81.474z m0 186.809H243.551v81.456h540.42v-81.474zM406.2 787.568h224.079a54.216 54.216 0 0 1 54.216 54.216A54.216 54.216 0 0 1 630.279 896h-224.08a54.216 54.216 0 0 1-54.216-54.216 54.216 54.216 0 0 1 54.217-54.216z"  horiz-adv-x="1024" />

    
    <glyph glyph-name="jine" unicode="&#58973;" d="M509.191 872.41c-273.515 0-495.139-221.658-495.139-495.138s221.642-495.085 495.14-495.085 495.066 221.623 495.066 495.121S782.689 872.411 509.191 872.411zM672.6 315.3a39.972 39.972 0 0 0 0-79.943H549.09v-103.045a39.972 39.972 0 1 0-79.943 0V235.357H345.891a39.972 39.972 0 0 0 0 79.943h123.437v59.046H345.891a39.99 39.99 0 0 0 0 79.98h88.685L327.27 579.477a39.9 39.9 0 0 0 60.635 51.857l121.45-141.427 121.378 141.427a39.9 39.9 0 0 0 60.635-51.857L584.059 454.325h88.722a39.99 39.99 0 0 0 0-79.98H549.09v-59.008h123.437z m0 0"  horiz-adv-x="1024" />

    
    <glyph glyph-name="kehu" unicode="&#58974;" d="M248.686 636.27C248.686 779.703 366.519 896 512 896s263.46-116.37 263.314-259.73c0-143.36-117.98-259.73-263.314-259.73S248.686 492.762 248.686 636.196zM0-128c0 248.832 173.714 456.704 405.211 506.368L512 296.814l106.789 81.554C850.286 328.631 1024 120.905 1024-128H0z m512 42.715l87.771 86.455L512 261.047l-87.771-259.73L512-85.285z"  horiz-adv-x="1024" />

    
    <glyph glyph-name="youjiantou" unicode="&#58975;" d="M698.685 636.323v-508.831c0-28.16-22.598-50.934-50.757-50.934-13.093 0-24.932 5.024-33.901 13.092L278.272 341.283c-22.24 16.859-26.905 48.607-10.044 71.024 2.871 3.947 6.281 7.355 10.045 10.045l339.338 254.51c22.241 16.676 54.16 12.193 70.844-10.225 6.996-9.15 10.225-19.73 10.225-30.31z"  horiz-adv-x="1024" />

    
    <glyph glyph-name="shuju" unicode="&#58976;" d="M985.6-128H38.4A38.4 38.4 0 0 0 0-89.66V857.6A38.4 38.4 0 0 0 38.4 896a38.4 38.4 0 0 0 38.4-38.4v-908.785h908.8a38.4 38.4 0 1 0 0-76.8z m-64.005 128.01h-76.8a51.195 51.195 0 0 0-51.194 51.194V614.406a51.195 51.195 0 0 0 51.195 51.195h76.8a51.21 51.21 0 0 0 51.21-51.195v-563.202a51.21 51.21 0 0 0-51.21-51.195z m-307.198 0h-76.8a51.195 51.195 0 0 0-51.194 51.194V512.002a51.195 51.195 0 0 0 51.194 51.195h76.8a51.195 51.195 0 0 0 51.195-51.195v-460.798a51.195 51.195 0 0 0-51.195-51.195z m-307.199 0h-76.8a51.21 51.21 0 0 0-51.209 51.194V716.811a51.21 51.21 0 0 0 51.21 51.195h76.8a51.21 51.21 0 0 0 51.194-51.195v-665.607a51.195 51.195 0 0 0-51.195-51.195z m0 0"  horiz-adv-x="1024" />

    
    <glyph glyph-name="dianhua3" unicode="&#58977;" d="M512-128C229.24-128 0 101.24 0 384S229.24 896 512 896s512-229.24 512-512-229.24-512-512-512z m130.799 204.8c44.92 0 94.174 53.897 105.472 90.249 7.168 23.108-1.912 33.587-7.1 37.137-36.113 31.027-99.67 72.806-124.518 78.165l-1.775 0.341-1.775-0.239c-14.097-2.082-22.63-11.64-30.174-20.07-9.899-11.06-16.384-17.203-30.14-15.258-4.198 0.615-22.118 7.988-79.189 76.664l-24.303 29.935c-56.866 71.51-60.484 90.93-60.211 95.198 0.887 14.028 8.192 18.91 21.094 26.35 9.797 5.633 20.89 12.05 25.84 25.396l0.682 1.706-0.034 1.81c-0.137 25.395-27.955 96.255-50.415 137.01-2.492 5.94-9.558 15.873-29.15 15.873-39.697 0-109.227-40.244-116.668-87.928-10.581-67.584 34.611-171.35 120.832-277.64l31.847-39.254c86.22-106.257 178.449-171.827 246.784-175.377l2.9-0.068z"  horiz-adv-x="1024" />

    
    <glyph glyph-name="bangdan" unicode="&#58978;" d="M168.3 52.9c-9.3-16 4.9-35.4 23.1-31.6l74.3 15.7c10.8 2.3 21.5-3.9 24.9-14.3l23.5-72c5.7-17.6 29.7-20.1 39-4.1l92.1 158.9c-73.3 12.1-140 43.8-194.4 89.7l-82.5-142.3z m698.7 0.8l-87.1 148.6c-53.5-47.6-119.7-81.1-192.9-95l93.8-160.2c9.3-15.9 33.2-13.4 39 4.1l23.9 72.3c3.4 10.3 14.1 16.5 24.8 14.2L844 22c18.2-3.8 32.4 15.7 23 31.7z m-29.5 450.9c0 180.1-146 326.1-326.1 326.1s-326.1-146-326.1-326.1c0-180.1 146-326.1 326.1-326.1s326.1 146 326.1 326.1zM511.3 256.8c-136.9 0-247.9 111-247.9 247.9s111 247.9 247.9 247.9 247.9-111 247.9-247.9-111-247.9-247.9-247.9z m0 417.4c-93.7 0-169.6-75.9-169.6-169.6S417.7 335 511.3 335s169.6 75.9 169.6 169.6S605 674.2 511.3 674.2z"  horiz-adv-x="1024" />

    
    <glyph glyph-name="quxian" unicode="&#58979;" d="M897.991 728.064l-34.816 31.004a13.767 13.767 0 0 0 5.945 23.695l146.148 32.256c9.216 1.99 17.123-5.263 16.497-15.161l-15.16-148.765c-0.655-10.553-13.825-15.815-22.386-8.59L959.63 673.28a36.44 36.44 0 0 0-2.958-3.755l-204.089-229.12a40.51 40.51 0 0 0-16.81-11.377 41.813 41.813 0 0 0-46.422 6.115L476.103 625.436 206.734 376.548a41.586 41.586 0 0 0-58.595 2.616c-15.787 16.47-14.507 43.464 2.645 58.596l294.315 271.929a40.42 40.42 0 0 0 34.787 10.524 41.982 41.982 0 0 0 26.454-10.524l208.896-186.397 179.54 201.558c1.025 1.138 2.106 2.247 3.244 3.242zM29.668-111.388H26.34A26.425 26.425 0 0 0 0-85.048V869.66C0 884.167 11.861 896 26.34 896h3.3c14.477 0 26.339-11.861 26.339-26.34v-925.07h1110.755c14.478 0 26.311-11.861 26.311-26.34v-3.299c0-14.478-11.833-26.34-26.34-26.34H29.64zM286.436 0.54h-97.48a45.796 45.796 0 0 0-46.08 46.08V155.932c0 25.686 20.424 46.08 46.08 46.08h96.797c25.031 0 46.08-20.394 46.08-46.08V46.65c0.654-25.685-20.395-46.08-45.426-46.08z m243.626 0h-97.45a45.796 45.796 0 0 0-46.08 46.08V375.865c0 25.031 20.394 46.08 46.08 46.08h96.796c25.031 0 46.08-21.049 46.08-46.08v-329.216c0.654-25.685-20.423-46.08-45.426-46.08z m243.598 0h-96.768c-25.03 0-46.08 20.424-46.08 46.08V275.115c0 25.03 21.05 46.08 46.08 46.08h96.768c25.686 0 46.08-21.05 46.08-46.08v-228.466c0-25.685-21.048-46.08-46.08-46.08z m243.627 0h-96.825a45.796 45.796 0 0 0-46.08 46.08V474.652c0 25.032 20.395 46.08 46.08 46.08h96.797c25.685 0 46.08-21.048 46.08-46.08V46.65c0-25.685-21.05-46.08-46.08-46.08z"  horiz-adv-x="1194" />

    
    <glyph glyph-name="liebiao" unicode="&#58980;" d="M848.404 896H178.152C121.69 896 75.753 850.053 75.753 793.6v-893.671c0-15.42 12.5-27.928 27.926-27.928 1.565 0 3.09 0.161 4.58 0.407a27.915 27.915 0 0 1 22.011 5.575l114.982 90.563 114.98-90.562c10.136-7.962 24.411-7.962 34.565 0l119.308 93.963 115.636-91.073c10.146-7.963 24.417-7.963 34.565 0l114.89 90.49 117.088-92.216c5.484-4.318 12.058-6.235 18.506-5.948a27.93 27.93 0 0 1 8.085-1.2c15.43 0 27.927 12.508 27.927 27.927V793.601C950.804 850.057 904.869 896 848.404 896zM245.892 725.238c0 9.382 7.605 16.985 16.985 16.985h351.472c9.38 0 16.985-7.605 16.985-16.985v-27.439c0-9.381-7.604-16.984-16.985-16.984H262.877c-9.382 0-16.985 7.604-16.985 16.984v27.439z m521.981-518.716c0-9.382-7.605-16.985-16.985-16.985H262.877c-9.382 0-16.985 7.603-16.985 16.985v27.439c0 9.381 7.605 16.984 16.985 16.984h488.01c9.38 0 16.985-7.603 16.985-16.984v-27.439z m0 163.759c0-9.382-7.605-16.985-16.985-16.985H262.877c-9.382 0-16.985 7.603-16.985 16.985v27.438c0 9.382 7.605 16.985 16.985 16.985h488.01c9.38 0 16.985-7.604 16.985-16.985v-27.438z m0 163.758c0-9.381-7.605-16.984-16.985-16.984H262.877c-9.382 0-16.985 7.604-16.985 16.984v27.439c0 9.382 7.605 16.985 16.985 16.985h488.01c9.38 0 16.985-7.605 16.985-16.985v-27.439z"  horiz-adv-x="1024" />

    
    <glyph glyph-name="cha" unicode="&#58984;" d="M512 896C229.199448 896 0 666.800552 0 384s229.199448-512 512-512 512 229.199448 512 512S794.800552 896 512 896z m237.638621-704.070621c12.429241-12.446897 12.623448-32.715034 0.494345-45.479724a31.302621 31.302621 0 0 0-44.667587-0.494345L512 339.014621l-193.465379-192.971035a31.126069 31.126069 0 0 0-44.667587 0.512 32.485517 32.485517 0 0 0 0.494345 45.479724L466.944 384 274.361379 576.070621a32.679724 32.679724 0 0 0-0.494345 45.479724 31.302621 31.302621 0 0 0 44.667587 0.494345L512 428.985379l193.465379 192.971035a31.126069 31.126069 0 0 0 44.667587-0.512 32.485517 32.485517 0 0 0-0.494345-45.479724L557.056 384 749.638621 191.929379z"  horiz-adv-x="1024" />

    
    <glyph glyph-name="chenggong" unicode="&#58985;" d="M512 896C229.2224 896 0 666.7776 0 384s229.2224-512 512-512 512 229.2224 512 512S794.7776 896 512 896z m348.6208-360.96l-433.2544-397.824a34.816 34.816 0 0 0-47.2576 0L214.528 286.464a30.3104 30.3104 0 0 0 0 44.544 34.8672 34.8672 0 0 0 47.2576 0l141.9264-126.976 409.6 375.552a34.816 34.816 0 0 0 47.2576 0c13.056-12.288 13.056-32.256 0-44.544z"  horiz-adv-x="1024" />

    
    <glyph glyph-name="shangsheng" unicode="&#59009;" d="M967.172 523.346L649.435 896l-383.51-324.852 54.37-37.493 191.573 75.807C573.992 110.006 230.257-39.147 56.656-88.5L68.24-128c184.913 52.546 643.866 92.046 681.907 718.032l171.503-102.72 45.52 36.034z"  horiz-adv-x="1024" />

    
    <glyph glyph-name="xiajiang" unicode="&#59010;" d="M967.172 244.654L649.435-128l-383.51 324.943 54.37 37.494 191.573-75.808c62.124 499.456-281.611 648.61-455.212 697.87L68.24 896c184.913-52.546 643.866-92.046 681.907-718.032l171.503 102.72 45.52-36.034z"  horiz-adv-x="1024" />

    


  </font>
</defs>
</svg>
